<?xml version="1.0" encoding="utf-8"?>
<!-- Generator: Adobe Illustrator 16.0.0, SVG Export Plug-In . SVG Version: 6.00 Build 0)  -->
<!DOCTYPE svg PUBLIC "-//W3C//DTD SVG 1.1//EN" "http://www.w3.org/Graphics/SVG/1.1/DTD/svg11.dtd">
<svg version="1.1" id="Livello_1" xmlns="http://www.w3.org/2000/svg" xmlns:xlink="http://www.w3.org/1999/xlink" x="0px" y="0px"
	 width="300px" height="300px" viewBox="661.178 -3065.217 300 300" enable-background="new 661.178 -3065.217 300 300"
	 xml:space="preserve" fill="white" stroke="white">
<g>
	<path d="M837.944-2883.781c0.701,0.702,1.631,1.089,2.617,1.089s1.917-0.386,2.621-1.09c1.436-1.44,1.436-3.787,0-5.232
		l-27.723-27.807v-44.576c0-2.05-1.667-3.719-3.717-3.719c-2.049,0-3.716,1.668-3.716,3.719v46.178c0,1.019,0.384,1.988,1.057,2.663
		L837.944-2883.781z"/>
	<path d="M945.85-2913.213c-4.76-14.415-16.063-20.442-25.147-25.286c-1.412-0.75-2.901-1.547-4.243-2.32
		c-2.848-1.649-8.437-4.282-14.909-7.331l-0.404-0.19c-6.534-3.071-14.665-6.893-21.034-10.247
		c-1.972-1.038-3.925-1.576-5.807-1.602c-14.482-20.104-37.829-32.09-62.564-32.09c-29.121,0-55.243,15.992-68.542,41.845
		c-3.822-4.54-9.367-10.254-10.926-10.956l-0.229-0.089c-4.366-1.544-9.452-2.36-14.706-2.36c-12.655,0-23.672,4.626-28.796,12.136
		c-1.461,2.144-3.28,4.812-5.137,7.917c-7.018,11.736-9.32,21.067-7.038,28.527c4.435,14.542,15.618,20.83,24.679,25.924
		c1.47,0.828,2.857,1.609,4.126,2.384c2.913,1.77,8.855,4.727,15.146,7.858l0.184,0.091c6.798,3.39,14.502,7.231,20.674,10.656
		c3.55,1.974,7.174,2.265,10.097,0.866c14.738,18.646,36.728,29.321,60.468,29.321c20.277,0,39.286-7.754,53.764-21.881
		c0.047,0.295,0.1,0.592,0.161,0.888l0.454,2.18c0.102,0.492,0.563,0.827,1.055,0.793l37.444-2.873
		c0.034-0.002,0.067-0.007,0.101-0.013l0.562-0.105c0.891-0.244,21.899-6.114,29.182-17.327c1.46-2.24,3.164-4.887,4.911-7.964
		C946.168-2896.416,948.286-2905.821,945.85-2913.213z M742.051-2888.436l-15.039-8.54c-0.479-0.273-1.083-0.108-1.358,0.366
		l-2.557,4.388c-0.134,0.23-0.171,0.505-0.102,0.763c0.069,0.257,0.238,0.477,0.47,0.609l24.216,13.837
		c1.343,1.023,1.471,2.034,1.164,2.613c-0.011,0.015-0.021,0.031-0.029,0.046c-0.136,0.228-0.351,0.402-0.643,0.519
		c-0.829,0.335-2.154,0.087-3.562-0.693c-6.347-3.524-14.166-7.42-21.136-10.892c-6.436-3.205-11.993-5.973-14.622-7.571
		c-1.35-0.822-2.765-1.62-4.263-2.465l-0.147-0.083c-8.295-4.667-17.697-9.956-21.312-21.784c-2.92-9.561,7.013-24.157,11.3-30.458
		c3.656-5.35,13.085-9.086,22.93-9.086c4.165,0,8.177,0.645,11.926,1.917c1.77,1.41,8.008,8.086,10.665,11.7
		c-0.657,1.684-1.261,3.407-1.802,5.145c-3.779-3.47-6.395-6.568-6.936-8.249c-0.471-1.468-1.823-2.455-3.365-2.455
		c-0.367,0-0.732,0.057-1.086,0.171c-1.857,0.599-2.883,2.595-2.286,4.449c1.626,5.053,9.053,11.597,12.172,14.177
		c1.668,1.374,3.358,2.668,4.893,3.746c1.001,0.694,1.828,1.235,2.527,1.652c3.101,1.858,32.686,19.409,32.97,19.578
		c3.121,1.921,1.711,4.658,1.405,5.172c-0.244,0.395-0.917,1.312-1.899,1.313c-0.391,0-0.822-0.143-1.31-0.441l-34.279-19.509
		c-0.476-0.271-1.083-0.109-1.359,0.365l-2.557,4.388c-0.275,0.473-0.119,1.081,0.352,1.362l1.73,1.035l38.074,21.708
		c1,0.547,1.479,1.301,1.506,2.366c0.025,1.312-0.697,2.713-1.72,3.333c-0.722,0.438-1.521,0.392-2.365-0.071l-40.11-23.44
		c-0.479-0.279-1.089-0.118-1.367,0.357l-2.568,4.382c-0.279,0.476-0.12,1.088,0.355,1.368l34.322,20.188
		c0.279,0.158,0.511,0.334,0.514,0.898c0,1.066-0.772,2.307-1.799,2.889c-0.938,0.536-1.913,0.45-3.118-0.27l-9.281-5.295
		c-0.211-0.148-0.433-0.297-0.678-0.449c-0.128-0.076-0.789-0.457-1.806-1.036C747.453-2885.361,744.887-2886.821,742.051-2888.436z
		 M767.46-2871.227c2.28-1.296,4.077-3.546,4.894-6.054c2.762,1.107,5.812,0.891,8.292-0.613c3.203-1.939,5.214-5.684,5.124-9.537
		c-0.057-2.62-1.071-4.972-2.886-6.739c0.598-0.585,1.128-1.252,1.587-1.994c2.697-4.45,2.297-11.191-3.771-14.929
		c0,0-29.864-17.721-33.008-19.598c-0.123-0.073-0.254-0.152-0.347-0.209l-2.945-2.092c8.029-30.566,35.622-51.853,67.341-51.853
		c21.774,0,42.498,10.336,55.607,27.69c-0.331,0.39-0.624,0.808-0.874,1.249c-0.309,0.544-0.556,1.133-0.735,1.746l-1.624-0.879
		c-1.708-0.97-3.474-1.462-5.248-1.462c-3.523,0-6.865,2.027-8.721,5.291c-0.41,0.72-0.729,1.469-0.958,2.238
		c-1.117-0.417-2.26-0.628-3.41-0.628c-3.433,0-6.456,1.857-8.295,5.095c-1.48,2.603-1.868,5.654-1.063,8.373
		c0.489,1.646,1.389,3.097,2.626,4.255c-0.608,0.626-1.142,1.34-1.594,2.132c-2.6,4.577-2.01,11.098,4.162,14.713
		c0,0,30.2,17.017,33.398,18.832l0.196,0.104c0.53,0.253,1.577,0.779,3.021,1.628c-4.287,13.759-12.975,26.107-24.526,34.839
		c-12.153,9.187-26.664,14.042-41.963,14.042c-20.923,0-40.883-9.552-54.041-25.708
		C760.882-2869.565,764.493-2869.54,767.46-2871.227z M890.889-2880.342c-0.032,0.212-0.093,0.392-0.181,0.551
		c-0.902,1.577-5.227,2.507-8.701,3.254c-1.322,0.285-2.756,0.594-4.193,0.97c2.761-4.584,5.036-9.452,6.788-14.518
		C889.071-2886.444,891.295-2883.012,890.889-2880.342z M872.402-2863.668c0.079-0.558,0.24-1.047,0.485-1.48
		c1.423-2.503,6.087-3.508,10.609-4.482c5.355-1.148,10.894-2.334,13.358-6.672c0.515-0.914,0.858-1.915,1.021-2.977
		c0.855-5.605-2.359-11.291-9.554-16.896c-0.629-0.494-1.314-1-2.16-1.597c-1.562-1.092-3.224-2.143-4.935-3.123
		c-1.433-0.822-2.48-1.347-2.811-1.507c-3.529-2-33.284-18.764-33.281-18.764c-3.233-1.891-1.717-4.768-1.53-5.095
		c0.388-0.69,0.964-1.196,1.541-1.352c0.471-0.129,0.982-0.014,1.655,0.377l34.649,18.705c0.48,0.26,1.082,0.084,1.349-0.393
		l2.454-4.437c0.266-0.479,0.095-1.083-0.381-1.354l-1.748-0.992l-38.489-20.817c-0.761-0.395-1.23-0.926-1.438-1.624
		c-0.258-0.875-0.099-1.948,0.425-2.866c0.266-0.463,1.011-1.539,2.182-1.539c0.4,0,0.839,0.123,1.28,0.353l34.248,19.001
		l6.312,3.498c0.231,0.13,0.505,0.16,0.761,0.089c0.256-0.073,0.472-0.244,0.601-0.476l2.461-4.429
		c0.268-0.482,0.095-1.09-0.387-1.359l-34.714-19.384c-0.316-0.167-0.42-0.333-0.477-0.529c-0.144-0.495,0.014-1.254,0.399-1.932
		c0.23-0.401,1.095-1.709,2.558-1.709c0.558,0,1.171,0.188,1.839,0.568l9.397,5.084c0.212,0.141,0.43,0.279,0.651,0.411
		c0.263,0.156,2.273,1.245,6.402,3.476l7.021,3.786c4.633,2.495,9.078,4.89,10.725,5.78c0.486,0.261,1.087,0.083,1.351-0.396
		l2.452-4.438c0.129-0.233,0.159-0.509,0.085-0.765c-0.075-0.256-0.249-0.471-0.483-0.598l-24.465-13.266
		c-1.301-0.95-1.492-1.943-1.258-2.51c0.001-0.002,0.059-0.117,0.06-0.119c0.517-0.912,2.289-0.925,4.201,0.082l0.487,0.253
		c6.338,3.316,14.035,6.937,20.825,10.131l0.215,0.101c6.414,3.02,11.954,5.628,14.569,7.141c1.385,0.8,2.832,1.574,4.365,2.393
		c0,0,0.088,0.047,0.088,0.047c8.388,4.472,17.895,9.54,21.76,21.267c1.753,5.305-0.234,13.061-5.906,23.049
		c-1.59,2.798-3.191,5.29-4.697,7.603c-5.433,8.369-22.425,13.578-24.812,14.275L872.402-2863.668z"/>
</g>
</svg>
