<?xml version="1.0" encoding="UTF-8" standalone="no"?>
<!-- Generator: Adobe Illustrator 21.0.0, SVG Export Plug-In . SVG Version: 6.00 Build 0)  -->

<svg
   xmlns:dc="http://purl.org/dc/elements/1.1/"
   xmlns:cc="http://creativecommons.org/ns#"
   xmlns:rdf="http://www.w3.org/1999/02/22-rdf-syntax-ns#"
   xmlns:svg="http://www.w3.org/2000/svg"
   xmlns="http://www.w3.org/2000/svg"
   xmlns:sodipodi="http://sodipodi.sourceforge.net/DTD/sodipodi-0.dtd"
   xmlns:inkscape="http://www.inkscape.org/namespaces/inkscape"
   version="1.1"
   id="Livello_1"
   x="0px"
   y="0px"
   viewBox="0 0 300 300"
   xml:space="preserve"
   sodipodi:docname="food-placeholder.svg"
   width="300"
   height="300"
   inkscape:version="0.92.3 (2405546, 2018-03-11)"><metadata
   id="metadata120"><rdf:RDF><cc:Work
       rdf:about=""><dc:format>image/svg+xml</dc:format><dc:type
         rdf:resource="http://purl.org/dc/dcmitype/StillImage" /><dc:title></dc:title></cc:Work></rdf:RDF></metadata><defs
   id="defs118">
	
	
		
	
	

		
		
	
			
			
			
		
				
				
				
			
				
				
				
				
				
				
				
			</defs><sodipodi:namedview
   pagecolor="#ffffff"
   bordercolor="#666666"
   borderopacity="1"
   objecttolerance="10"
   gridtolerance="10"
   guidetolerance="10"
   inkscape:pageopacity="0"
   inkscape:pageshadow="2"
   inkscape:window-width="960"
   inkscape:window-height="1016"
   id="namedview116"
   showgrid="false"
   inkscape:zoom="0.67153803"
   inkscape:cx="124.55308"
   inkscape:cy="127.77955"
   inkscape:window-x="0"
   inkscape:window-y="27"
   inkscape:window-maximized="0"
   inkscape:current-layer="Livello_1" />
<style
   type="text/css"
   id="style2">
	.st0{fill:none;}
	.st1{fill:none;stroke:#8BB43B;stroke-width:0.72;}
	.st2{fill:#89B63A;}
	.st3{fill:#FFFFFF;}
	.st4{fill:url(#XMLID_146_);}
	.st5{fill:none;stroke:#FFFFFF;stroke-width:6;stroke-linecap:round;stroke-linejoin:round;stroke-miterlimit:10;}
	.st6{fill:#89B63A;stroke:#FFFFFF;stroke-width:6;stroke-linecap:round;stroke-linejoin:round;stroke-miterlimit:10;}
	.st7{fill:url(#XMLID_154_);}
	.st8{fill:#89B63A;stroke:#FFFFFF;stroke-width:5;stroke-linecap:round;stroke-linejoin:round;stroke-miterlimit:10;}
	.st9{fill:url(#XMLID_162_);}
	.st10{fill:url(#XMLID_170_);}
	.st11{fill:#FFFFFF;stroke:#FFFFFF;stroke-width:6;stroke-linecap:round;stroke-linejoin:round;stroke-miterlimit:10;}
	.st12{fill:url(#XMLID_178_);}
	.st13{fill:url(#XMLID_186_);}
	.st14{fill:url(#XMLID_244_);}
	.st15{fill:none;stroke:#FFFFFF;stroke-width:5;stroke-linecap:round;stroke-linejoin:round;stroke-miterlimit:10;}
	.st16{fill:none;stroke:#FFFFFF;stroke-width:4;stroke-linecap:round;stroke-linejoin:round;stroke-miterlimit:10;}
	.st17{fill:#FFFFFF;stroke:#FFFFFF;stroke-width:5;stroke-linecap:round;stroke-linejoin:round;stroke-miterlimit:10;}
	.st18{fill:url(#XMLID_245_);}
	.st19{fill:url(#XMLID_246_);}
	.st20{fill:url(#XMLID_247_);}
	.st21{fill:url(#XMLID_248_);}
	.st22{fill:url(#XMLID_249_);}
	.st23{fill:url(#XMLID_250_);}
	.st24{fill:url(#XMLID_251_);}
</style>
<pattern
   x="-250.7"
   y="-435.2"
   width="72"
   height="72"
   patternUnits="userSpaceOnUse"
   id="_x31_0_lpi_10_x25__2"
   viewBox="72.2 -72 72 72">
	<g
   id="XMLID_844_">
		<rect
   id="XMLID_901_"
   x="72.2"
   y="-72"
   class="st0"
   width="72"
   height="72" />
		<g
   id="XMLID_890_">
			<line
   id="XMLID_900_"
   class="st1"
   x1="144"
   y1="-3.6"
   x2="216.5"
   y2="-3.6" />
			<line
   id="XMLID_899_"
   class="st1"
   x1="144"
   y1="-18"
   x2="216.5"
   y2="-18" />
			<line
   id="XMLID_898_"
   class="st1"
   x1="144"
   y1="-32.4"
   x2="216.5"
   y2="-32.4" />
			<line
   id="XMLID_897_"
   class="st1"
   x1="144"
   y1="-46.8"
   x2="216.5"
   y2="-46.8" />
			<line
   id="XMLID_896_"
   class="st1"
   x1="144"
   y1="-61.2"
   x2="216.5"
   y2="-61.2" />
			<line
   id="XMLID_895_"
   class="st1"
   x1="144"
   y1="-10.8"
   x2="216.5"
   y2="-10.8" />
			<line
   id="XMLID_894_"
   class="st1"
   x1="144"
   y1="-25.2"
   x2="216.5"
   y2="-25.2" />
			<line
   id="XMLID_893_"
   class="st1"
   x1="144"
   y1="-39.6"
   x2="216.5"
   y2="-39.6" />
			<line
   id="XMLID_892_"
   class="st1"
   x1="144"
   y1="-54"
   x2="216.5"
   y2="-54" />
			<line
   id="XMLID_891_"
   class="st1"
   x1="144"
   y1="-68.4"
   x2="216.5"
   y2="-68.4" />
		</g>
		<g
   id="XMLID_879_">
			<line
   id="XMLID_889_"
   class="st1"
   x1="72"
   y1="-3.6"
   x2="144.5"
   y2="-3.6" />
			<line
   id="XMLID_888_"
   class="st1"
   x1="72"
   y1="-18"
   x2="144.5"
   y2="-18" />
			<line
   id="XMLID_887_"
   class="st1"
   x1="72"
   y1="-32.4"
   x2="144.5"
   y2="-32.4" />
			<line
   id="XMLID_886_"
   class="st1"
   x1="72"
   y1="-46.8"
   x2="144.5"
   y2="-46.8" />
			<line
   id="XMLID_885_"
   class="st1"
   x1="72"
   y1="-61.2"
   x2="144.5"
   y2="-61.2" />
			<line
   id="XMLID_884_"
   class="st1"
   x1="72"
   y1="-10.8"
   x2="144.5"
   y2="-10.8" />
			<line
   id="XMLID_883_"
   class="st1"
   x1="72"
   y1="-25.2"
   x2="144.5"
   y2="-25.2" />
			<line
   id="XMLID_882_"
   class="st1"
   x1="72"
   y1="-39.6"
   x2="144.5"
   y2="-39.6" />
			<line
   id="XMLID_881_"
   class="st1"
   x1="72"
   y1="-54"
   x2="144.5"
   y2="-54" />
			<line
   id="XMLID_880_"
   class="st1"
   x1="72"
   y1="-68.4"
   x2="144.5"
   y2="-68.4" />
		</g>
		<g
   id="XMLID_845_">
			<line
   id="XMLID_878_"
   class="st1"
   x1="0"
   y1="-3.6"
   x2="72.5"
   y2="-3.6" />
			<line
   id="XMLID_877_"
   class="st1"
   x1="0"
   y1="-18"
   x2="72.5"
   y2="-18" />
			<line
   id="XMLID_876_"
   class="st1"
   x1="0"
   y1="-32.4"
   x2="72.5"
   y2="-32.4" />
			<line
   id="XMLID_875_"
   class="st1"
   x1="0"
   y1="-46.8"
   x2="72.5"
   y2="-46.8" />
			<line
   id="XMLID_874_"
   class="st1"
   x1="0"
   y1="-61.2"
   x2="72.5"
   y2="-61.2" />
			<line
   id="XMLID_873_"
   class="st1"
   x1="0"
   y1="-10.8"
   x2="72.5"
   y2="-10.8" />
			<line
   id="XMLID_872_"
   class="st1"
   x1="0"
   y1="-25.2"
   x2="72.5"
   y2="-25.2" />
			<line
   id="XMLID_871_"
   class="st1"
   x1="0"
   y1="-39.6"
   x2="72.5"
   y2="-39.6" />
			<line
   id="XMLID_870_"
   class="st1"
   x1="0"
   y1="-54"
   x2="72.5"
   y2="-54" />
			<line
   id="XMLID_869_"
   class="st1"
   x1="0"
   y1="-68.4"
   x2="72.5"
   y2="-68.4" />
		</g>
	</g>
</pattern>

<rect
   style="fill:#ffffff;fill-opacity:0;stroke:none;stroke-width:4.11001253;stroke-miterlimit:4;stroke-dasharray:none;stroke-opacity:1"
   id="rect1026"
   width="300"
   height="300"
   x="-1.1853027e-07"
   y="3.2324219e-06" /><g
   id="g1863"
   transform="matrix(0.90019421,0,0,0.90019421,14.970898,14.970866)"><g
     transform="matrix(0.82119678,0,0,0.82119678,39.967454,5.96374)"
     id="XMLID_4260_">
				<g
   id="XMLID_4748_">
					<polygon
   id="XMLID_4764_"
   class="st5"
   points="218.4,96.7 216.8,136.1 90.3,157.2 76,120.5 "
   style="fill:none;stroke:#ffffff;stroke-width:6;stroke-linecap:round;stroke-linejoin:round;stroke-miterlimit:10" />
					<polygon
   id="XMLID_4763_"
   class="st5"
   points="222,85.8 218.6,96.7 75.9,120.5 69.1,111.3 "
   style="fill:none;stroke:#ffffff;stroke-width:6;stroke-linecap:round;stroke-linejoin:round;stroke-miterlimit:10" />
					<g
   id="XMLID_4749_">
						<line
   id="XMLID_4762_"
   class="st5"
   x1="88.900002"
   y1="125.7"
   x2="97.099998"
   y2="149"
   style="fill:none;stroke:#ffffff;stroke-width:6;stroke-linecap:round;stroke-linejoin:round;stroke-miterlimit:10" />
						<line
   id="XMLID_4761_"
   class="st5"
   x1="98.800003"
   y1="124"
   x2="106.4"
   y2="147.5"
   style="fill:none;stroke:#ffffff;stroke-width:6;stroke-linecap:round;stroke-linejoin:round;stroke-miterlimit:10" />
						<line
   id="XMLID_4760_"
   class="st5"
   x1="108.8"
   y1="122.4"
   x2="115.6"
   y2="145.89999"
   style="fill:none;stroke:#ffffff;stroke-width:6;stroke-linecap:round;stroke-linejoin:round;stroke-miterlimit:10" />
						<line
   id="XMLID_4759_"
   class="st5"
   x1="118.7"
   y1="120.7"
   x2="124.8"
   y2="144.39999"
   style="fill:none;stroke:#ffffff;stroke-width:6;stroke-linecap:round;stroke-linejoin:round;stroke-miterlimit:10" />
						<line
   id="XMLID_4758_"
   class="st5"
   x1="128.60001"
   y1="119.1"
   x2="134"
   y2="142.8"
   style="fill:none;stroke:#ffffff;stroke-width:6;stroke-linecap:round;stroke-linejoin:round;stroke-miterlimit:10" />
						<line
   id="XMLID_4757_"
   class="st5"
   x1="138.60001"
   y1="117.4"
   x2="143.2"
   y2="141.3"
   style="fill:none;stroke:#ffffff;stroke-width:6;stroke-linecap:round;stroke-linejoin:round;stroke-miterlimit:10" />
						<line
   id="XMLID_4756_"
   class="st5"
   x1="148.5"
   y1="115.7"
   x2="152.39999"
   y2="139.8"
   style="fill:none;stroke:#ffffff;stroke-width:6;stroke-linecap:round;stroke-linejoin:round;stroke-miterlimit:10" />
						<line
   id="XMLID_4755_"
   class="st5"
   x1="158.5"
   y1="114.1"
   x2="161.60001"
   y2="138.2"
   style="fill:none;stroke:#ffffff;stroke-width:6;stroke-linecap:round;stroke-linejoin:round;stroke-miterlimit:10" />
						<line
   id="XMLID_4754_"
   class="st5"
   x1="168.39999"
   y1="112.4"
   x2="170.89999"
   y2="136.7"
   style="fill:none;stroke:#ffffff;stroke-width:6;stroke-linecap:round;stroke-linejoin:round;stroke-miterlimit:10" />
						<line
   id="XMLID_4753_"
   class="st5"
   x1="178.3"
   y1="110.8"
   x2="180.10001"
   y2="135.2"
   style="fill:none;stroke:#ffffff;stroke-width:6;stroke-linecap:round;stroke-linejoin:round;stroke-miterlimit:10" />
						<line
   id="XMLID_4752_"
   class="st5"
   x1="188.3"
   y1="109.1"
   x2="189.3"
   y2="133.60001"
   style="fill:none;stroke:#ffffff;stroke-width:6;stroke-linecap:round;stroke-linejoin:round;stroke-miterlimit:10" />
						<line
   id="XMLID_4751_"
   class="st5"
   x1="198.2"
   y1="107.5"
   x2="198.5"
   y2="132.10001"
   style="fill:none;stroke:#ffffff;stroke-width:6;stroke-linecap:round;stroke-linejoin:round;stroke-miterlimit:10" />
						<line
   id="XMLID_4750_"
   class="st5"
   x1="208.2"
   y1="105.8"
   x2="207.7"
   y2="130.60001"
   style="fill:none;stroke:#ffffff;stroke-width:6;stroke-linecap:round;stroke-linejoin:round;stroke-miterlimit:10" />
					</g>
				</g>
				<g
   id="XMLID_4745_">
					<path
   id="XMLID_4245_"
   class="st5"
   d="m 111.9,92.6 c -0.9,-5.7 1.1,-6 0.1,-11.7 -0.9,-5.7 -3,-5.3 -3.9,-11 -0.9,-5.7 1.1,-6 0.1,-11.7"
   inkscape:connector-curvature="0"
   style="fill:none;stroke:#ffffff;stroke-width:6;stroke-linecap:round;stroke-linejoin:round;stroke-miterlimit:10" />
				</g>
				<g
   id="XMLID_4264_">
					<path
   id="XMLID_4776_"
   class="st5"
   d="m 173.6,82.3 c -0.9,-5.7 1.1,-6 0.1,-11.7 -0.9,-5.7 -3,-5.3 -3.9,-11 -0.9,-5.7 1.1,-6 0.1,-11.7"
   inkscape:connector-curvature="0"
   style="fill:none;stroke:#ffffff;stroke-width:6;stroke-linecap:round;stroke-linejoin:round;stroke-miterlimit:10" />
				</g>
				<g
   id="XMLID_4261_">
					<path
   id="XMLID_4778_"
   class="st5"
   d="m 142.7,87.5 c -0.9,-5.7 1.1,-6 0.1,-11.7 -0.9,-5.7 -3,-5.3 -3.9,-11 -0.9,-5.7 1.1,-6 0.1,-11.7"
   inkscape:connector-curvature="0"
   style="fill:none;stroke:#ffffff;stroke-width:6;stroke-linecap:round;stroke-linejoin:round;stroke-miterlimit:10" />
				</g>
			</g><polyline
     transform="matrix(0.82119678,0,0,0.82119678,39.967454,5.96374)"
     style="fill:#89b63a;fill-opacity:0;stroke:#ffffff;stroke-width:6;stroke-linecap:round;stroke-linejoin:round;stroke-miterlimit:10"
     points="42.8,262.7 64.5,244.8 89.5,270.9 165.1,257.2 141.1,133.3 64.2,140.2       64.5,244.8     "
     class="st6"
     id="XMLID_4123_" /><polygon
     transform="matrix(0.82119678,0,0,0.82119678,39.967454,5.96374)"
     style="fill:#ffffff;fill-opacity:0.03982299;stroke:#ffffff;stroke-width:6;stroke-linecap:round;stroke-linejoin:round;stroke-miterlimit:10"
     points="148.5,153.1 72.1,161.4 64.2,140.2 141.1,133.3 "
     class="st6"
     id="XMLID_4122_" /><polygon
     transform="matrix(0.82119678,0,0,0.82119678,39.967454,5.96374)"
     style="fill:none;stroke:#ffffff;stroke-width:6;stroke-linecap:round;stroke-linejoin:round;stroke-miterlimit:10"
     points="64.2,140.2 89.5,270.9 63,262.7 42.8,262.7 "
     class="st5"
     id="XMLID_4124_" /><path
     style="fill:#89b63a;fill-opacity:0;stroke:#ffffff;stroke-width:4.92718077;stroke-linecap:round;stroke-linejoin:round;stroke-miterlimit:10"
     inkscape:connector-curvature="0"
     d="m 163.2291,213.06957 -19.87297,3.3669 c -2.46359,0.4106 -3.85962,3.03843 -2.9563,5.33778 l 6.40533,15.35638 c 0.73908,1.72452 1.97087,3.20267 3.61327,4.10599 l 20.69416,11.74311 c 3.12054,1.80663 6.89805,2.21723 10.34708,1.2318 l 30.95911,-8.62257 c 2.21724,-0.57484 3.94175,-2.13511 4.84507,-4.27022 l 6.65169,-15.19214"
     class="st6"
     id="XMLID_4119_" /><path
     style="fill:none;stroke:#ffffff;stroke-width:4.92718077;stroke-linecap:round;stroke-linejoin:round;stroke-miterlimit:10"
     inkscape:connector-curvature="0"
     d="m 140.56407,218.32523 27.26373,14.45306 c 5.09142,2.70995 10.92192,3.44903 16.58817,2.21723 l 39.58169,-8.86892"
     class="st5"
     id="XMLID_4111_" /><path
     style="fill:#89b63a;fill-opacity:0;stroke:#ffffff;stroke-width:4.92718077;stroke-linecap:round;stroke-linejoin:round;stroke-miterlimit:10"
     inkscape:connector-curvature="0"
     d="m 140.56407,199.27346 13.54974,-14.28882 c 1.56028,-1.72452 3.94175,-2.46359 6.2411,-1.97087 l 29.72732,5.83049 c 2.29935,0.4106 4.43446,1.06756 6.56958,1.97087 l 24.30742,10.10072 c 2.54571,1.06756 4.10598,3.53115 3.94175,6.2411 l -0.90332,18.88753 -33.34059,-2.54571 c -4.02386,-0.32848 -7.96561,-1.31392 -11.57888,-3.03843 l -37.85717,-17.65573 c -1.31391,-0.65696 -1.64239,-2.38147 -0.65695,-3.53115 z"
     class="st6"
     id="XMLID_4110_" /><path
     style="fill:none;stroke:#ffffff;stroke-width:4.92718077;stroke-linecap:round;stroke-linejoin:round;stroke-miterlimit:10"
     inkscape:connector-curvature="0"
     d="m 159.12311,183.42436 23.65047,11.2504 c 4.10598,1.97087 8.45833,3.20267 12.89279,3.85962 l 27.42797,3.85963"
     class="st5"
     id="XMLID_4108_" /><path
     style="fill:none;stroke:#ffffff;stroke-width:4.92718077;stroke-linecap:round;stroke-linejoin:round;stroke-miterlimit:10"
     inkscape:connector-curvature="0"
     d="m 165.77481,231.62861 9.52588,-1.64239 c 3.28479,-0.57484 6.65169,-0.32848 9.85436,0.57484 l 7.96561,2.46359"
     class="st5"
     id="XMLID_4102_" /><path
     style="fill:none;stroke:#ffffff;stroke-width:4.92718077;stroke-linecap:round;stroke-linejoin:round;stroke-miterlimit:10"
     inkscape:connector-curvature="0"
     d="m 143.76673,195.90655 36.05054,16.99878 c 4.10599,1.88875 8.45833,3.20267 12.89279,3.69538 l 31.53396,3.77751"
     class="st5"
     id="XMLID_4094_" /><path
     style="fill:none;stroke:#ffffff;stroke-width:4.92718077;stroke-linecap:round;stroke-linejoin:round;stroke-miterlimit:10"
     inkscape:connector-curvature="0"
     d="m 143.76673,228.17959 22.91139,11.57887 c 6.6517,3.36691 14.37095,4.18811 21.59748,2.38147 l 32.35515,-8.29408"
     class="st5"
     id="XMLID_4093_" /></g></svg>