<?xml version="1.0" encoding="utf-8"?>
<!-- Generator: Adobe Illustrator 21.0.0, SVG Export Plug-In . SVG Version: 6.00 Build 0)  -->
<svg version="1.1" id="Livello_1" xmlns="http://www.w3.org/2000/svg" xmlns:xlink="http://www.w3.org/1999/xlink" x="0px" y="0px"
	 viewBox="0 0 800 800" style="enable-background:new 0 0 800 800;" xml:space="preserve">
<style type="text/css">
	.st0{fill:#DF6210;}
	.st1{fill:#FFFFFF;}
</style>
<g>
	<path id="XMLID_3495_" class="st0" d="M730.7,431.2c-19.2-45.1,43.9-75.3,2.5-172.4c-41.3-97.2-106.9-72.9-126.1-117.9l-537.9,228
		c19.2,45.1-43.9,75.3-2.5,172.4c41.3,97.2,106.9,72.9,126.1,117.9L730.7,431.2z"/>
	<path id="XMLID_3492_" class="st1" d="M194,489.5l20.3,47.8l28.6-12.1c2-0.8,3.6-1.1,4.8-0.7c1.2,0.4,2,1.2,2.6,2.5
		c0.5,1.2,0.5,2.4,0,3.5c-0.5,1.2-1.8,2.2-3.8,3l-48.2,20.5c-2,0.8-3.6,1-4.8,0.6c-1.2-0.4-2.1-1.2-2.6-2.4c-0.5-1.3-0.5-2.5,0-3.6
		c0.5-1.1,1.8-2.1,3.8-3l11.2-4.8l-42.3-99.5l-11.2,4.8c-2,0.8-3.6,1.1-4.8,0.7c-1.2-0.4-2-1.2-2.6-2.5c-0.5-1.3-0.5-2.5,0.1-3.8
		c0.4-1,1.7-1.9,3.7-2.7l91.9-39l12.2,28.7c0.8,2,1,3.6,0.6,4.8c-0.4,1.2-1.2,2-2.4,2.6c-1.3,0.5-2.5,0.5-3.6,0
		c-1.2-0.5-2.2-1.8-3-3.8l-8.6-20.4L172,437.7l18.4,43.4l29.9-12.7l-4-9.4c-0.8-2-1-3.6-0.6-4.8c0.4-1.2,1.3-2.1,2.5-2.6
		c1.2-0.5,2.4-0.5,3.5,0c1.2,0.5,2.2,1.8,3,3.8l11.6,27.2c0.8,2,1,3.6,0.6,4.8c-0.4,1.2-1.2,2.1-2.4,2.6c-1.3,0.5-2.5,0.5-3.6,0
		c-1.2-0.5-2.2-1.8-3-3.8l-4-9.4L194,489.5z"/>
	<path id="XMLID_3485_" class="st1" d="M378,409.4c-5.8-13.6-14.9-24.1-27.3-31.5c-12.5-7.4-24.9-8.5-37.5-3.2
		c-11.7,5-19.6,14.4-23.5,28.2c-3.9,13.8-2.8,28,3.4,42.6c6.6,15.5,16.3,26.3,29.2,32.4c12.9,6.1,24.8,6.9,35.7,2.2
		c12.5-5.3,20.4-15,23.7-29.1C385,436.9,383.7,423,378,409.4 M386.4,405.8c4.7,11.1,6.8,22.4,6.4,33.8c-0.5,11.4-3.5,21.5-9.2,30.1
		c-5.7,8.7-13,14.9-22.1,18.8c-13.4,5.7-27.7,5-42.8-2.1c-15.1-7.1-26.4-19.6-34-37.4c-7.6-17.9-8.7-34.8-3.3-50.5
		c5.4-15.7,14.8-26.4,28.2-32.2c9.1-3.8,18.7-4.8,28.8-2.8c10.1,2,19.5,6.7,28,14.2C375,385.2,381.6,394.6,386.4,405.8"/>
	<path id="XMLID_3479_" class="st1" d="M500,357.5c-5.8-13.6-14.9-24.1-27.3-31.5c-12.4-7.4-24.9-8.5-37.4-3.2
		c-11.7,5-19.5,14.4-23.4,28.2c-3.9,13.8-2.8,28,3.4,42.6c6.6,15.5,16.3,26.3,29.1,32.4c12.9,6.1,24.8,6.9,35.7,2.2
		c12.5-5.3,20.4-15,23.7-29.1C507,385,505.8,371.2,500,357.5 M508.4,354c4.7,11.1,6.8,22.4,6.4,33.8c-0.5,11.4-3.5,21.5-9.2,30.1
		c-5.7,8.6-13,14.9-22.1,18.8c-13.4,5.7-27.7,5-42.7-2.1c-15.1-7.1-26.4-19.6-34-37.4c-7.6-17.9-8.7-34.8-3.3-50.5
		c5.4-15.7,14.8-26.4,28.2-32.2c9.1-3.8,18.6-4.8,28.8-2.8c10.1,1.9,19.4,6.7,28,14.2C497.1,333.4,503.7,342.8,508.4,354"/>
	<path id="XMLID_3475_" class="st1" d="M576.1,383.6l30.3-12.9c7-3,12.6-8.1,16.8-15.2c4.2-7.2,6.5-14.6,6.8-22.3
		c0.4-7.7-0.8-14.7-3.4-20.9l-6.4-15.1c-2.2-5.2-5-9.4-8.4-12.7c-4.9-4.9-10.6-9-17.3-12.5c-3.6-1.9-8.3-3.1-13.9-3.5
		c-5.7-0.4-11.2,0.5-16.5,2.7l-30.3,12.9L576.1,383.6z M567.8,387.1l-42.3-99.5l-7,3c-2,0.8-3.6,1.1-4.8,0.7c-1.2-0.4-2-1.2-2.6-2.5
		c-0.5-1.3-0.5-2.4,0-3.6c0.5-1.1,1.8-2.1,3.8-3l44.9-19.1c7-3,14-4.2,21.1-3.8c7,0.5,12.9,1.9,17.5,4.3c7.9,4.1,14.7,9,20.4,14.9
		c4.1,4.3,7.6,9.9,10.6,16.8l4.9,11.5c3.6,8.5,5.3,17.6,4.9,27.2c-0.4,9.6-3.7,19.3-10,29c-4.7,7.2-11.3,12.6-20,16.2l-44.9,19.1
		c-2,0.8-3.6,1-4.8,0.6c-1.2-0.4-2-1.2-2.6-2.4c-0.5-1.3-0.5-2.5,0-3.6c0.5-1.1,1.8-2.1,3.8-3L567.8,387.1z"/>
</g>
</svg>
