<?xml version="1.0" encoding="utf-8"?>
<!-- Generator: Adobe Illustrator 16.0.0, SVG Export Plug-In . SVG Version: 6.00 Build 0)  -->
<!DOCTYPE svg PUBLIC "-//W3C//DTD SVG 1.1//EN" "http://www.w3.org/Graphics/SVG/1.1/DTD/svg11.dtd">
<svg version="1.1" id="Livello_1" xmlns="http://www.w3.org/2000/svg" xmlns:xlink="http://www.w3.org/1999/xlink" x="0px" y="0px"
	 width="300px" height="300px" viewBox="287.932 -3065.217 300 300" enable-background="new 287.932 -3065.217 300 300"
	 xml:space="preserve" fill="white" stroke="white">
<path d="M572.483-2913.89c-4.754-14.409-16.05-20.429-25.126-25.266l-0.089-0.047c-1.479-0.788-2.875-1.533-4.149-2.271
	c-0.409-0.237-0.881-0.496-1.398-0.772l12.786-18.978c1.762-2.622,1.156-6.125-1.351-7.812l-113.724-76.607
	c-0.874-0.589-1.899-0.901-2.965-0.901c-1.9,0-3.688,0.968-4.784,2.593l-62.026,92.449c-4.014-4.718-9.129-9.881-10.564-10.526
	l-0.222-0.085c-4.364-1.543-9.446-2.358-14.696-2.358c-12.642,0-23.648,4.621-28.723,12.059c-1.296,1.896-3.254,4.762-5.178,7.977
	c-7.01,11.724-9.312,21.047-7.036,28.503c4.435,14.529,15.609,20.812,24.585,25.859l0.153,0.086l-13.994,20.776
	c-0.809,1.199-1.154,2.631-0.973,4.037c0.205,1.545,1.049,2.922,2.316,3.778l113.724,76.604c0.88,0.591,1.91,0.903,2.979,0.903
	c0.475,0,0.945-0.06,1.394-0.178c1.366-0.357,2.563-1.213,3.373-2.411l71.687-106.424c4.878,3.389,9.678,7.968,9.085,11.847
	c-0.037,0.231-0.093,0.406-0.18,0.561c-0.894,1.57-5.218,2.498-8.693,3.244c-5.749,1.235-12.265,2.636-15.251,7.895
	c-1.477,2.597-1.838,5.785-1.072,9.476l0.45,2.184c0.097,0.467,0.508,0.798,0.979,0.798c0.026,0,0.052-0.001,0.078-0.003
	l37.506-2.886l0.566-0.103c0.888-0.243,21.847-6.074,29.153-17.316c1.469-2.255,3.18-4.917,4.906-7.954
	C572.8-2897.107,574.918-2906.504,572.483-2913.89z M499.101-2864.394c0.081-0.559,0.242-1.047,0.485-1.476
	c1.423-2.507,6.084-3.508,10.596-4.478c5.351-1.147,10.884-2.333,13.343-6.659c0.518-0.901,0.864-1.903,1.028-2.978
	c0.857-5.598-2.356-11.28-9.549-16.889c-4.627-3.604-9.418-5.987-9.896-6.219c-3.524-1.998-33.253-18.747-33.25-18.747
	c-3.225-1.886-1.717-4.762-1.534-5.084c0.392-0.691,0.967-1.196,1.543-1.351c0.482-0.131,0.979-0.021,1.657,0.372l34.619,18.692
	c0.482,0.261,1.085,0.084,1.35-0.396l2.451-4.431c0.265-0.479,0.095-1.083-0.381-1.353l-1.746-0.993l-38.458-20.797
	c-0.76-0.395-1.229-0.924-1.434-1.619c-0.258-0.87-0.098-1.943,0.424-2.867c0.264-0.461,1.004-1.535,2.174-1.535
	c0.4,0,0.84,0.123,1.282,0.353l40.522,22.479c0.482,0.269,1.09,0.094,1.359-0.389l2.461-4.426c0.268-0.482,0.095-1.09-0.387-1.359
	l-34.678-19.362c-0.32-0.171-0.422-0.334-0.478-0.53c-0.146-0.5,0.007-1.243,0.398-1.934c0.228-0.4,1.085-1.706,2.552-1.706
	c0.559,0,1.172,0.188,1.84,0.567l9.439,5.114c0.196,0.128,0.399,0.257,0.603,0.376c0.852,0.505,23.896,12.904,24.129,13.029
	c0.482,0.26,1.083,0.083,1.349-0.397l2.448-4.432c0.129-0.233,0.159-0.508,0.084-0.764c-0.075-0.256-0.249-0.471-0.483-0.598
	l-24.444-13.255c-1.316-0.955-1.553-2.003-1.201-2.624c0.521-0.917,2.275-0.929,4.193,0.08c6.539,3.441,14.724,7.287,21.3,10.377
	l0.29,0.136c6.371,3.001,11.873,5.593,14.484,7.101c1.362,0.791,2.798,1.557,4.317,2.369l0.135,0.072
	c8.374,4.466,17.865,9.528,21.729,21.243c1.753,5.304-0.231,13.051-5.9,23.027c-1.608,2.832-3.198,5.305-4.69,7.597
	c-5.418,8.346-22.403,13.562-24.79,14.26L499.101-2864.394z M362.625-2941.02c-2.441-2.477-4.159-4.668-4.582-5.984
	c-0.472-1.468-1.826-2.454-3.368-2.454c-0.367,0-0.731,0.057-1.085,0.17c-0.897,0.289-1.629,0.911-2.06,1.752
	c-0.431,0.84-0.509,1.797-0.22,2.693c2.051,6.385,13.829,16.127,19.568,19.561c3.137,1.874,32.941,19.557,32.945,19.559
	c3.114,1.92,1.706,4.652,1.398,5.169c-0.188,0.307-0.879,1.309-1.892,1.309c-0.391,0-0.821-0.143-1.308-0.44l-34.248-19.49
	c-0.478-0.272-1.083-0.108-1.358,0.366l-2.555,4.381c-0.276,0.474-0.12,1.082,0.352,1.363l1.729,1.031l38.039,21.694
	c1.001,0.544,1.479,1.295,1.503,2.361c0.026,1.311-0.695,2.709-1.718,3.326c-0.721,0.438-1.518,0.393-2.362-0.072l-40.076-23.417
	c-0.476-0.278-1.088-0.119-1.367,0.358l-2.565,4.379c-0.279,0.476-0.12,1.088,0.356,1.367l34.302,20.174
	c0.262,0.145,0.498,0.322,0.501,0.892c0.002,1.059-0.77,2.3-1.792,2.885c-0.941,0.532-1.917,0.446-3.121-0.27l-9.264-5.289
	c-0.214-0.151-0.438-0.298-0.67-0.442c-0.847-0.525-23.636-13.452-23.865-13.582c-0.476-0.27-1.081-0.107-1.357,0.366l-2.555,4.379
	c-0.134,0.23-0.171,0.505-0.102,0.763c0.069,0.258,0.238,0.477,0.47,0.609l24.197,13.828c1.129,0.865,1.575,1.897,1.135,2.642
	c-0.003,0.005-0.006,0.011-0.009,0.017c-0.546,0.902-2.302,0.875-4.192-0.176c-6.378-3.547-14.21-7.445-21.12-10.884l-0.36-0.179
	c-6.271-3.126-11.686-5.826-14.247-7.387c-1.394-0.848-2.857-1.672-4.408-2.544c-8.289-4.661-17.684-9.944-21.292-21.758
	c-2.923-9.583,7.032-24.182,11.293-30.431c3.648-5.345,13.065-9.078,22.901-9.078c4.162,0,8.171,0.645,11.917,1.916
	c1.633,1.292,6.536,6.538,9.471,10.159L362.625-2941.02z M334.289-2886.359c3.208,1.751,7.925,4.101,12.865,6.56l0.106,0.053
	c6.817,3.397,14.544,7.247,20.732,10.683c2.085,1.159,4.151,1.747,6.138,1.747c3.168,0,6.006-1.559,7.596-4.181
	c0.31-0.527,0.559-1.086,0.743-1.672l1.604,0.919c3.28,1.953,7.08,2.068,10.185,0.308c2.274-1.297,4.068-3.545,4.884-6.047
	c2.759,1.106,5.809,0.89,8.287-0.614c3.197-1.937,5.207-5.678,5.12-9.528c-0.057-2.617-1.072-4.968-2.884-6.736
	c0.604-0.591,1.141-1.264,1.585-1.986c2.694-4.449,2.294-11.186-3.767-14.917c0,0-29.841-17.708-32.974-19.579
	c-0.129-0.077-0.261-0.158-0.351-0.212l-4.278-3.039c-0.621-0.484-1.229-0.977-1.827-1.472l68.805-102.545l110.764,74.611
	l-12.462,18.497c-2.163-1.037-4.568-2.169-7.111-3.367l-0.228-0.107c-6.897-3.244-14.714-6.921-21.019-10.236
	c-2.021-1.065-4.023-1.606-5.95-1.606c-3.282,0-6.152,1.601-7.679,4.287c-0.306,0.543-0.552,1.131-0.73,1.74l-1.623-0.878
	c-1.707-0.97-3.472-1.461-5.245-1.461c-3.522,0-6.861,2.025-8.714,5.287c-0.407,0.716-0.727,1.464-0.956,2.234
	c-1.115-0.417-2.254-0.626-3.402-0.626c-3.432,0-6.455,1.857-8.293,5.095c-1.478,2.602-1.865,5.649-1.062,8.362
	c0.487,1.643,1.385,3.094,2.625,4.252c-0.612,0.631-1.145,1.344-1.59,2.13c-2.599,4.576-2.01,11.091,4.158,14.698
	c0,0,30.174,17.004,33.385,18.825l0.179,0.091c0.108,0.052,0.222,0.109,0.334,0.165l-70.605,104.817l-110.769-74.616
	L334.289-2886.359z"/>
</svg>
