<?xml version="1.0" encoding="utf-8"?>
<!-- Generator: Adobe Illustrator 16.0.0, SVG Export Plug-In . SVG Version: 6.00 Build 0)  -->
<!DOCTYPE svg PUBLIC "-//W3C//DTD SVG 1.1//EN" "http://www.w3.org/Graphics/SVG/1.1/DTD/svg11.dtd">
<svg version="1.1" id="Livello_1" xmlns="http://www.w3.org/2000/svg" xmlns:xlink="http://www.w3.org/1999/xlink" x="0px" y="0px"
	 width="300px" height="300px" viewBox="1014.779 -3065.217 300 300" enable-background="new 1014.779 -3065.217 300 300"
	 xml:space="preserve" fill="white" stroke="white">
<g>
	<path d="M1234.592-2978.435l-26.412,21.543c4.854-9.997,8.023-20.792,9.291-31.934c3.838,3.738,9.082,6.058,14.861,6.058v-7.109
		c-7.844,0-14.227-6.38-14.227-14.224c0-4.268,1.896-8.27,5.188-10.985c3.34-2.754,7.582-3.816,11.936-2.951
		c6.564,1.28,11.324,7.469,11.324,14.702C1246.553-2993.607,1242.197-2984.538,1234.592-2978.435 M1181.08-2932.258l-7.012,6.373
		h-18.582l-7.014-6.373c-19.01-17.282-29.912-41.936-29.912-67.627v-18.437h46.219H1211v18.437
		C1211-2974.193,1200.096-2949.54,1181.08-2932.258 M1178.998-2911.66h-7.105h-14.225h-7.111c-1.957,0-3.553-1.594-3.553-3.555
		c0-1.967,1.596-3.555,3.553-3.555h28.441c1.957,0,3.557,1.588,3.557,3.555C1182.555-2913.254,1180.955-2911.66,1178.998-2911.66
		 M1171.893-2897.441h-14.225c-1.959,0-3.555-1.589-3.555-3.557c0-1.96,1.596-3.553,3.555-3.553h14.225
		c1.957,0,3.555,1.593,3.555,3.553C1175.447-2899.03,1173.85-2897.441,1171.893-2897.441 M1161.225-2890.328h7.107v28.44h-7.107
		V-2890.328z M1196.777-2812.111h-63.998v-42.666h7.111v35.554h49.773v-35.554h7.113V-2812.111z M1147.004-2854.777h35.551v28.444
		h-35.551V-2854.777z M1094.943-2978.452c-7.586-6.086-11.938-15.155-11.938-24.883c0-7.233,4.76-13.422,11.318-14.702
		c4.359-0.858,8.598,0.204,11.938,2.951c3.293,2.716,5.186,6.718,5.186,10.985c0,7.844-6.375,14.224-14.221,14.224v7.109
		c5.775,0,11.023-2.319,14.865-6.062c1.266,11.143,4.434,21.937,9.279,31.934L1094.943-2978.452z M1236.6-3025.016
		c-6.389-1.243-12.879,0.37-17.822,4.439c-0.234,0.198-0.439,0.415-0.672,0.615v-5.473h-53.326h-53.332v5.473
		c-0.229-0.2-0.43-0.42-0.666-0.615c-4.943-4.069-11.432-5.677-17.82-4.439c-9.889,1.932-17.064,11.049-17.064,21.681
		c0,11.897,5.322,22.989,14.576,30.417l38.574,31.454c2.375,1.935,3.732,4.807,3.732,7.865c0,4.057-3.012,7.51-6.723,7.705
		c-1.951,0.123-3.855-0.581-5.277-1.945c-1.432-1.353-2.219-3.185-2.219-5.154h-7.113c0,3.882,1.617,7.641,4.43,10.312
		c2.676,2.537,6.125,3.911,9.789,3.911c0.248,0,0.506-0.009,0.762-0.021c6.674-0.348,12.047-5.475,13.213-12.118
		c1.311,1.336,2.654,2.646,4.049,3.916l2.361,2.145c-3.623,1.705-6.16,5.366-6.16,9.634c0,4.915,3.363,9.026,7.896,10.253
		c-0.494,1.23-0.783,2.562-0.783,3.964c0,4.633,2.982,8.542,7.109,10.014v29.097h-28.441v49.776h-7.111v7.11H1211v-7.11h-7.113
		v-49.776h-28.439v-29.097c4.125-1.472,7.107-5.381,7.107-10.014c0-1.402-0.287-2.733-0.783-3.964
		c4.535-1.23,7.893-5.338,7.893-10.253c0-4.268-2.527-7.929-6.158-9.634l2.361-2.145c1.395-1.267,2.738-2.577,4.049-3.916
		c1.162,6.644,6.543,11.771,13.215,12.118c0.254,0.013,0.508,0.021,0.762,0.021c3.662,0,7.113-1.374,9.783-3.911
		c2.818-2.672,4.43-6.431,4.43-10.312H1211c0,1.97-0.791,3.802-2.221,5.154c-1.43,1.364-3.307,2.062-5.277,1.945
		c-3.709-0.195-6.725-3.648-6.725-7.705c0-3.059,1.359-5.931,3.732-7.865l38.549-31.441c9.279-7.44,14.604-18.532,14.604-30.43
		C1253.662-3013.967,1246.486-3023.084,1236.6-3025.016"/>
</g>
</svg>
