<?xml version="1.0" encoding="utf-8"?>
<!-- Generator: Adobe Illustrator 16.0.0, SVG Export Plug-In . SVG Version: 6.00 Build 0)  -->
<!DOCTYPE svg PUBLIC "-//W3C//DTD SVG 1.1//EN" "http://www.w3.org/Graphics/SVG/1.1/DTD/svg11.dtd">
<svg version="1.1" id="Livello_1" xmlns="http://www.w3.org/2000/svg" xmlns:xlink="http://www.w3.org/1999/xlink" x="0px" y="0px"
	 width="300px" height="300px" viewBox="4423.763 -3065.217 300 300" enable-background="new 4423.763 -3065.217 300 300"
	 xml:space="preserve" fill="white" stroke="white">
<path d="M4609.123-2936.832c0,0,10.602-32.073,10.602-35.447c0-11.699-6.922-22.434-17.262-27.034v-31.197h-7.188v28.963
	c-7.535-1.402-15.115,0-21.557,4.074c-6.441-4.074-14.021-5.433-21.559-4.074v-28.963h-7.186v31.197
	c-10.34,4.601-17.264,15.292-17.264,27.034c0,4.119,10.605,35.447,10.605,35.447l-33.434,110.286c0,0,27.166,18.622,68.879,18.622
	c41.801,0,68.881-18.622,68.881-18.622L4609.123-2936.832z M4534.941-2972.585c0.131-9.026,5.564-17.22,13.584-20.462
	c8.018-3.242,16.43-2.191,23.045,2.804l2.148,1.621l2.146-1.621c6.617-4.995,14.986-6.046,23.049-2.804
	c8.018,3.242,13.451,11.479,13.582,20.462l-9.814,32.161h-57.881L4534.941-2972.585z M4544.801-2933.238h57.924l22.828,75.057
	h-103.582L4544.801-2933.238z M4513.428-2830.007l6.396-20.988h107.92l6.396,20.988c-18.533,9.771-39.348,14.897-60.334,14.897
	C4552.818-2815.11,4531.963-2820.236,4513.428-2830.007z"/>
</svg>
