<?xml version="1.0" encoding="utf-8"?>
<!-- Generator: Adobe Illustrator 16.0.0, SVG Export Plug-In . SVG Version: 6.00 Build 0)  -->
<!DOCTYPE svg PUBLIC "-//W3C//DTD SVG 1.1//EN" "http://www.w3.org/Graphics/SVG/1.1/DTD/svg11.dtd">
<svg version="1.1" id="Livello_1" xmlns="http://www.w3.org/2000/svg" xmlns:xlink="http://www.w3.org/1999/xlink" x="0px" y="0px"
	 width="300px" height="300px" viewBox="4815.763 -3065.217 300 300" enable-background="new 4815.763 -3065.217 300 300"
	 xml:space="preserve" fill="white" stroke="white">
<path d="M4949.615-2924.233c-1.955,0-3.546,1.591-3.546,3.547s1.591,3.547,3.546,3.547c1.956,0,3.548-1.591,3.548-3.547
	S4951.571-2924.233,4949.615-2924.233z"/>
<path d="M4964.623-2930.528c-1.955,0-3.546,1.591-3.546,3.547s1.591,3.547,3.546,3.547c1.956,0,3.547-1.591,3.547-3.547
	S4966.579-2930.528,4964.623-2930.528z"/>
<path d="M4979.628-2936.824c-1.956,0-3.548,1.591-3.548,3.547c0,1.956,1.592,3.547,3.548,3.547c1.955,0,3.546-1.591,3.546-3.547
	C4983.174-2935.233,4981.583-2936.824,4979.628-2936.824z"/>
<path d="M5045.45-2943.664l-1.342-2.207l-2.445,0.82c-0.079,0.028-9.154,3.029-20.26,3.029c-11.329,0-20.653-3.019-27.713-8.972
	c0.018,0.029-0.033-0.003-0.078-0.033c-2.331-1.524-4.756-2.298-7.203-2.298c-3.028,0-4.994,1.188-5.076,1.238
	c-10.811,6.724-38.152,22.366-58.454,22.366c-24.005,0-46.218,4.536-46.218,37.445v3.224h174.486l0.828-1.977
	C5052.397-2892.042,5062.127-2916.162,5045.45-2943.664z M4921.535-2896.152c0,0.359-0.291,0.65-0.65,0.65h-37.016
	c-0.18,0-0.351-0.074-0.474-0.205c-0.123-0.13-0.187-0.306-0.175-0.485c1.178-19.358,11.384-26.688,37.655-27.047
	c0.198-0.002,0.341,0.064,0.465,0.187c0.124,0.122,0.194,0.289,0.194,0.463V-2896.152z M5046.854-2895.969
	c-0.081,0.277-0.335,0.467-0.624,0.467h-117.598c-0.359,0-0.65-0.291-0.65-0.65v-26.836c0-0.332,0.25-0.609,0.579-0.646
	c22.921-2.538,50.336-19.189,58.192-24.232c0.253-0.163,0.584-0.131,0.801,0.077c8.358,7.993,20.062,12.217,33.846,12.217
	c8.438,0,15.706-1.559,19.288-2.488c0.287-0.073,0.59,0.057,0.733,0.317C5051.808-2918.756,5048.681-2902.204,5046.854-2895.969z"/>
<path d="M5048.061-2883.554h-168.498c-1.777,0-3.224,1.445-3.224,3.221c0,1.778,1.446,3.224,3.224,3.224h168.493
	c1.777,0,3.224-1.446,3.224-3.224C5051.279-2882.109,5049.835-2883.554,5048.061-2883.554z"/>
</svg>
