<?xml version="1.0" encoding="utf-8"?>
<!-- Generator: Adobe Illustrator 16.0.0, SVG Export Plug-In . SVG Version: 6.00 Build 0)  -->
<!DOCTYPE svg PUBLIC "-//W3C//DTD SVG 1.1//EN" "http://www.w3.org/Graphics/SVG/1.1/DTD/svg11.dtd">
<svg version="1.1" id="Livello_1" xmlns="http://www.w3.org/2000/svg" xmlns:xlink="http://www.w3.org/1999/xlink" x="0px" y="0px"
	 width="300px" height="300px" viewBox="7261.426 -3065.217 300 300" enable-background="new 7261.426 -3065.217 300 300"
	 xml:space="preserve" fill="white" stroke="white">
<g>
	<path d="M7498.539-2960.082c0.139-11.437-4.186-22.135-12.176-30.124c-7.853-7.853-18.354-12.177-29.572-12.177h-0.553
		c-11.42,0.139-22.198,4.706-30.352,12.859l-88.785,88.854c-8.142,8.143-12.721,18.921-12.893,30.353
		c-0.139,11.437,4.186,22.135,12.176,30.125c7.829,7.83,18.331,12.142,29.571,12.142c11.649,0,22.613-4.567,30.872-12.859
		l88.817-88.817C7493.821-2937.869,7498.4-2948.649,7498.539-2960.082z M7392.19-2845.548c-6.934,6.934-16.082,10.826-25.76,10.961
		l-0.394,0.002c-9.525,0-18.409-3.638-25.016-10.244c-6.739-6.739-10.377-15.762-10.242-25.407
		c0.136-9.715,4.027-18.864,10.96-25.763l20.425-20.424l50.484,50.417L7392.19-2845.548z M7417.286-2870.643l-50.486-50.485
		l38.662-38.662l50.452,50.485L7417.286-2870.643z M7460.586-2913.942l-50.453-50.486l20.425-20.424
		c6.933-6.933,16.081-10.825,25.759-10.961h0.475c9.44,0,18.297,3.638,24.936,10.243c6.74,6.74,10.378,15.763,10.243,25.406
		c-0.137,9.715-4.028,18.865-10.96,25.764L7460.586-2913.942z"/>
	<path d="M7337.102-2929.729l9.342,9.342l4.636-4.637l-9.37-9.404c-5.062-4.278-10.427-14.372-10.887-25.386
		c-0.409-9.769,3.118-18.675,10.199-25.755c6.594-6.594,15.444-10.225,24.922-10.225c9.869,0,19.191,3.886,26.247,10.943
		l9.341,9.341l4.638-4.637l-9.341-9.341c-8.277-8.294-19.239-12.862-30.867-12.862c-11.241,0-21.744,4.313-29.576,12.145
		c-8.443,8.443-12.667,18.988-12.216,30.496C7324.674-2946.847,7331.071-2934.877,7337.102-2929.729z"/>
	<path d="M7485.68-2900.67l-9.341-9.342l-4.638,4.637l9.342,9.342c18.334,18.334,9.514,42.374,0.718,51.17
		c-5.036,5.036-14.433,10.417-25.702,10.418c-0.001,0-0.002,0-0.003,0c-9.387,0-18.191-3.851-25.464-11.136l-9.342-9.342
		l-4.637,4.638l9.319,9.316c6.744,7.711,19.31,12.892,31.27,12.893c0.001,0,0.002,0,0.003,0c7.791,0,19.185-2.108,29.228-12.152
		C7498.781-2852.644,7506.711-2879.604,7485.68-2900.67z"/>
	<path d="M7358.232-2870.846c-4.836,0-8.77,3.935-8.77,8.771c0,4.835,3.934,8.77,8.77,8.77c4.837,0,8.771-3.934,8.771-8.77
		C7367.004-2866.911,7363.069-2870.846,7358.232-2870.846z M7358.232-2859.808c-1.271,0-2.268-0.996-2.268-2.268
		c0-1.272,0.996-2.27,2.268-2.27c1.272,0,2.269,0.997,2.269,2.27C7360.501-2860.804,7359.505-2859.808,7358.232-2859.808z"/>
	<path d="M7385.777-2857.202c4.836,0,8.771-3.934,8.771-8.77c0-4.817-3.935-8.736-8.771-8.736s-8.771,3.935-8.771,8.771
		C7377.007-2861.121,7380.941-2857.202,7385.777-2857.202z M7385.777-2868.239c1.271,0,2.268,0.996,2.268,2.268
		c0,1.272-0.996,2.269-2.268,2.269s-2.268-0.997-2.268-2.269C7383.51-2867.243,7384.506-2868.239,7385.777-2868.239z"/>
	<path d="M7353.428-2889.62c0,4.835,3.934,8.77,8.77,8.77s8.771-3.934,8.771-8.77s-3.935-8.77-8.771-8.77
		S7353.428-2894.456,7353.428-2889.62z M7362.164-2891.888c1.271,0,2.268,0.996,2.268,2.268s-0.996,2.268-2.268,2.268
		c-1.272,0-2.269-0.996-2.269-2.268S7360.892-2891.888,7362.164-2891.888z"/>
	<path d="M7460.586-2949.515c-4.837,0-8.771,3.935-8.771,8.771c0,4.835,3.935,8.77,8.771,8.77c4.836,0,8.77-3.934,8.77-8.77
		C7469.355-2945.58,7465.422-2949.515,7460.586-2949.515z M7460.586-2938.477c-1.272,0-2.269-0.996-2.269-2.268
		c0-1.272,0.996-2.269,2.269-2.269c1.271,0,2.268,0.997,2.268,2.269C7462.854-2939.473,7461.857-2938.477,7460.586-2938.477z"/>
	<path d="M7464.515-2977.094c-4.836,0-8.771,3.935-8.771,8.771c0,4.835,3.935,8.77,8.771,8.77s8.771-3.934,8.771-8.77
		C7473.285-2973.159,7469.351-2977.094,7464.515-2977.094z M7464.515-2966.055c-1.272,0-2.269-0.997-2.269-2.269
		s0.996-2.269,2.269-2.269s2.269,0.997,2.269,2.269S7465.787-2966.055,7464.515-2966.055z"/>
	<path d="M7436.971-2973.129c-4.836,0-8.77,3.935-8.77,8.771c0,4.835,3.934,8.77,8.77,8.77s8.77-3.934,8.77-8.773
		C7445.704-2969.196,7441.771-2973.129,7436.971-2973.129z M7436.971-2962.091c-1.272,0-2.269-0.996-2.269-2.268
		c0-1.272,0.996-2.27,2.269-2.27c1.271,0,2.268,0.997,2.268,2.27C7439.238-2963.087,7438.242-2962.091,7436.971-2962.091z"/>
</g>
</svg>
