<?xml version="1.0" encoding="utf-8"?>
<!-- Generator: Adobe Illustrator 16.0.0, SVG Export Plug-In . SVG Version: 6.00 Build 0)  -->
<!DOCTYPE svg PUBLIC "-//W3C//DTD SVG 1.1//EN" "http://www.w3.org/Graphics/SVG/1.1/DTD/svg11.dtd">
<svg version="1.1" id="Livello_1" xmlns="http://www.w3.org/2000/svg" xmlns:xlink="http://www.w3.org/1999/xlink" x="0px" y="0px"
	 width="300px" height="300px" viewBox="2107.763 -3065.217 300 300" enable-background="new 2107.763 -3065.217 300 300"
	 xml:space="preserve" fill="white" stroke="white">
<path d="M2326.41-2855.15c1.594,0,2.989-1.067,3.409-2.603l21.2-77.735c0.008-0.03,0.006-0.059,0.014-0.088
	c0.043-0.179,0.066-0.365,0.082-0.553c0.007-0.082,0.023-0.164,0.025-0.246c0-0.015,0.004-0.028,0.004-0.042
	c0-44.883-36.385-81.268-81.269-81.268c-1.95,0-3.534,1.583-3.534,3.534v74.202h-70.425l-11.687-46.791
	c-0.393-1.573-1.807-2.678-3.428-2.678h-23.996c-1.951,0-3.533,1.582-3.533,3.534c0,1.951,1.582,3.534,3.533,3.534h21.201
	l34.088,136.349c-5.564,2.975-9.354,8.836-9.354,15.587c0,9.757,7.909,17.667,17.666,17.667c8.548,0,15.677-6.07,17.313-14.134
	h64.31c1.637,8.064,8.765,14.134,17.312,14.134c9.757,0,17.667-7.909,17.667-17.667s-7.91-17.667-17.667-17.667
	c-8.547,0-15.675,6.07-17.312,14.133h-64.311c-1.637-8.063-8.766-14.133-17.312-14.133c-0.516,0-1.022,0.034-1.527,0.077
	l-1.784-7.144H2326.41z M2319.344-2841.016c5.854,0,10.599,4.746,10.599,10.6c0,5.853-4.744,10.6-10.599,10.6
	s-10.601-4.747-10.601-10.6C2308.743-2836.27,2313.489-2841.016,2319.344-2841.016z M2231.01-2830.416
	c0,5.853-4.747,10.6-10.602,10.6c-5.855,0-10.601-4.747-10.601-10.6c0-5.854,4.745-10.6,10.601-10.6
	C2226.263-2841.016,2231.01-2836.27,2231.01-2830.416z M2273.409-3010.53c11.94,0.56,23.133,3.953,32.944,9.504l-32.944,52.357
	V-3010.53z M2343.986-2939.951h-57.744l52.604-23.824C2341.797-2956.345,2343.594-2948.334,2343.986-2939.951z M2335.928-2970.211
	l-56.799,25.725l33.204-52.77C2322.242-2990.327,2330.374-2981.043,2335.928-2970.211z M2343.002-2932.884l-19.255,70.667h-108.415
	l-17.65-70.667H2343.002z"/>
</svg>
