<?xml version="1.0" encoding="utf-8"?>
<!-- Generator: Adobe Illustrator 16.0.0, SVG Export Plug-In . SVG Version: 6.00 Build 0)  -->
<!DOCTYPE svg PUBLIC "-//W3C//DTD SVG 1.1//EN" "http://www.w3.org/Graphics/SVG/1.1/DTD/svg11.dtd">
<svg version="1.1" id="Livello_1" xmlns="http://www.w3.org/2000/svg" xmlns:xlink="http://www.w3.org/1999/xlink" x="0px" y="0px"
	 width="300px" height="300px" viewBox="1371.763 -3065.217 300 300" enable-background="new 1371.763 -3065.217 300 300"
	 xml:space="preserve" fill="white" stroke="white">
<path d="M1585.889-2877.477c-2.473-1.708-5.004-3.459-7.029-4.995l-42.24-143.022c-0.125-0.425-0.516-0.717-0.959-0.717h-105.562
	c-0.553,0-1,0.448-1,1v105.566c0,0.445,0.295,0.837,0.723,0.961l40.076,11.569c35.264,10.18,70.527,20.36,105.793,30.538
	c1.92,1.421,4.138,2.956,6.462,4.563c13.564,9.385,32.142,22.239,25.163,34.163c-2.731,4.667-7.902,6.935-15.809,6.935
	c-0.001,0-0.002,0-0.002,0c-16.496-0.001-42.312-10.124-67.322-19.93c-16.53-6.479-33.622-13.178-48.36-17.042
	c-8.853-2.322-16.152-3.45-22.316-3.45c-13.473,0-21.438,5.4-24.35,16.509c-5.371,20.479,7.451,34.94,38.11,42.983
	c19.56,5.13,45.971,7.624,80.744,7.624c9.502,0,17.897-0.18,24.645-0.324c4.041-0.087,7.085-0.15,9.463-0.164
	c1.822-0.007,3.299-1.496,3.292-3.319c-0.009-1.817-1.491-3.296-3.321-3.296c-2.366,0.014-5.336,0.078-8.774,0.151l-0.835,0.018
	c-6.692,0.142-15.021,0.319-24.403,0.319c-34.232,0-60.121-2.425-79.145-7.415c-26.403-6.921-37.633-18.668-33.377-34.913
	c2.034-7.751,8.009-11.52,18.264-11.52c5.473,0,12.124,1.047,20.334,3.201c14.303,3.749,31.238,10.387,47.676,16.83
	c25.395,9.954,51.653,20.248,69.761,20.247c10.445,0,17.457-3.304,21.437-10.1
	C1623.105-2851.735,1600.709-2867.226,1585.889-2877.477z M1487.997-2972.267l44.345-44.345l36.996,125.266L1487.997-2972.267z
	 M1483.297-2976.943l-42.86-42.639h85.499L1483.297-2976.943z M1478.617-2972.264l-42.884,42.884v-85.547L1478.617-2972.264z
	 M1483.318-2967.587l81.375,80.956l-125.971-36.36L1483.318-2967.587z"/>
</svg>
