<?xml version="1.0" encoding="utf-8"?>
<!-- Generator: Adobe Illustrator 16.0.0, SVG Export Plug-In . SVG Version: 6.00 Build 0)  -->
<!DOCTYPE svg PUBLIC "-//W3C//DTD SVG 1.1//EN" "http://www.w3.org/Graphics/SVG/1.1/DTD/svg11.dtd">
<svg version="1.1" id="Livello_1" xmlns="http://www.w3.org/2000/svg" xmlns:xlink="http://www.w3.org/1999/xlink" x="0px" y="0px"
	 width="300px" height="300px" viewBox="3639.763 -3065.217 300 300" enable-background="new 3639.763 -3065.217 300 300"
	 xml:space="preserve" fill="white" stroke="white">
<g>
	<polygon fill="none" points="3723.503,-2981.497 3726.385,-2977.161 3728.171,-2975.374 3729.599,-2976.843 3727.796,-2978.644 	
		"/>
	<path fill="#FFFFFF" d="M3720.903-2984.125v0.071l4.898,7.37l2.377,2.378l2.473-2.545l-2.378-2.377L3720.903-2984.125z
		 M3728.171-2975.374l-1.786-1.787l-2.882-4.336l4.293,2.853l1.803,1.801L3728.171-2975.374z"/>
	<path fill="#FFFFFF" d="M3728.804-2979.758c-0.035-0.035-0.074-0.067-0.115-0.094l-7.37-4.897c-0.229-0.153-0.526-0.131-0.77-0.001
		c-0.243,0.131-0.396,0.42-0.396,0.697c0,0.148,0.044,0.292,0.125,0.415l4.898,7.37c0.028,0.042,0.06,0.08,0.095,0.115l2.377,2.378
		c0.141,0.141,0.331,0.22,0.53,0.22c0.002,0,0.004,0,0.005,0c0.201-0.001,0.394-0.083,0.533-0.228l2.473-2.545
		c0.285-0.294,0.282-0.763-0.008-1.053L3728.804-2979.758z M3728.179-2974.306l-2.377-2.378l-4.898-7.37v-0.071l7.37,4.897
		l2.378,2.377L3728.179-2974.306z"/>
</g>
<path d="M3865.124-2873.273l-0.211-0.516l-43.107-43.109l-13.254-5.673c-0.088-0.038-0.168-0.092-0.235-0.159l-8.582-8.583
	c-0.067-0.067-0.121-0.146-0.158-0.233l-2.806-6.515c-1.173-2.716-3.843-4.471-6.803-4.471c-1.01,0-1.996,0.205-2.932,0.608
	c-0.857,0.37-1.628,0.893-2.291,1.553l-3.788,3.668c-0.294,0.284-0.763,0.282-1.051-0.008l-47.333-47.213l-12.479-8.411l-7.45,7.449
	l7.963,11.956l47.783,47.855c0.293,0.293,0.293,0.768,0,1.06l-3.804,3.804c-2.881,2.891-2.873,7.589,0.019,10.472
	c0.662,0.659,1.433,1.182,2.292,1.554l6.514,2.804c0.087,0.038,0.167,0.092,0.234,0.159l8.56,8.582
	c0.067,0.067,0.121,0.147,0.158,0.234l5.674,13.253l43.155,43.085l0.501,0.204c3.055,1.316,6.273,1.98,9.578,1.98
	c0.001,0,0.002,0,0.002,0c6.504,0,12.606-2.543,17.184-7.161l1.524-1.525C3867.056-2853.62,3869.074-2864.102,3865.124-2873.273z
	 M3731.189-2976.328l-2.473,2.545c-0.14,0.144-0.332,0.226-0.533,0.228c-0.001,0-0.003,0-0.005,0c-0.199,0-0.39-0.079-0.53-0.22
	l-2.377-2.378c-0.035-0.035-0.066-0.074-0.095-0.115l-4.898-7.37c-0.081-0.123-0.125-0.267-0.125-0.415
	c0-0.276,0.152-0.566,0.396-0.697c0.243-0.13,0.54-0.152,0.77,0.001l7.37,4.897c0.041,0.027,0.08,0.059,0.115,0.094l2.378,2.377
	C3731.472-2977.091,3731.475-2976.622,3731.189-2976.328z M3732.688-2968.712c-0.141-0.141-0.22-0.331-0.22-0.53
	c0-0.199,0.079-0.39,0.22-0.53l2.497-2.496c0.293-0.293,0.768-0.293,1.061,0l39.681,39.656c0.141,0.141,0.22,0.331,0.22,0.53
	c0,0.199-0.079,0.39-0.22,0.53l-2.496,2.497c-0.146,0.146-0.338,0.22-0.53,0.22c-0.191,0-0.384-0.073-0.53-0.22L3732.688-2968.712z
	 M3774.421-2911.146c-0.1,0-0.2-0.02-0.295-0.061l-4.945-2.116c-0.559-0.204-0.989-0.729-1.089-1.356
	c-0.018-0.113-0.009-0.226,0.022-0.332c0.014-0.451,0.2-0.882,0.53-1.204l20.153-20.153c0.657-0.667,1.828-0.678,2.503-0.013
	c0.161,0.16,0.288,0.344,0.379,0.551l2.118,4.951c0.121,0.282,0.058,0.608-0.159,0.825l-18.688,18.688
	C3774.808-2911.223,3774.616-2911.146,3774.421-2911.146z M3791.657-2890.272c-0.048,0-0.096-0.004-0.144-0.014
	c-0.244-0.047-0.448-0.213-0.546-0.441l-3.866-9.043l-7.362-7.339c-0.142-0.141-0.221-0.332-0.221-0.531s0.079-0.39,0.22-0.531
	l17.048-17.047c0.293-0.293,0.768-0.293,1.061,0l7.411,7.41l9.043,3.866c0.229,0.098,0.395,0.303,0.441,0.548
	c0.047,0.245-0.03,0.497-0.207,0.673l-22.349,22.229C3792.044-2890.35,3791.854-2890.272,3791.657-2890.272z M3832.789-2846.668
	c-0.199,0-0.391-0.079-0.531-0.22l-37.279-37.352c-0.292-0.293-0.292-0.768,0.001-1.06l24.703-24.702
	c0.141-0.141,0.331-0.22,0.53-0.22s0.39,0.079,0.53,0.22l37.278,37.304c0.293,0.293,0.293,0.767,0.001,1.06l-24.702,24.75
	C3833.18-2846.747,3832.988-2846.668,3832.789-2846.668z M3855.905-2850.501l-1.521,1.521c-3.461,3.481-8.264,5.478-13.175,5.478
	c-0.562,0-1.13-0.026-1.689-0.077c-0.289-0.026-0.538-0.218-0.637-0.492c-0.1-0.274-0.031-0.58,0.175-0.786l20.923-20.923
	c0.207-0.206,0.515-0.273,0.785-0.175c0.274,0.099,0.466,0.347,0.492,0.637C3861.76-2859.813,3859.809-2854.414,3855.905-2850.501z"
	/>
</svg>
