<?xml version="1.0" encoding="utf-8"?>
<!-- Generator: Adobe Illustrator 16.0.0, SVG Export Plug-In . SVG Version: 6.00 Build 0)  -->
<!DOCTYPE svg PUBLIC "-//W3C//DTD SVG 1.1//EN" "http://www.w3.org/Graphics/SVG/1.1/DTD/svg11.dtd">
<svg version="1.1" id="Livello_1" xmlns="http://www.w3.org/2000/svg" xmlns:xlink="http://www.w3.org/1999/xlink" x="0px" y="0px"
	 width="300px" height="300px" viewBox="5634.5 -3065.217 300 300" enable-background="new 5634.5 -3065.217 300 300"
	 xml:space="preserve" fill="white" stroke="white">
<path d="M5784.499-2988.924c-40.642,0-73.706,33.065-73.706,73.707c0,40.642,33.064,73.706,73.706,73.706
	c40.643,0,73.708-33.064,73.708-73.706C5858.207-2955.859,5825.142-2988.924,5784.499-2988.924z M5803.548-2979.883
	c6.186,1.829,12.15,4.59,17.731,8.208c0.305,0.198,0.479,0.545,0.454,0.908c-0.025,0.363-0.245,0.683-0.574,0.837
	c-11.222,5.256-20.896,10.584-28.751,15.838c-12.226,7.45-22.627,16.135-29.205,22.114c-0.189,0.171-0.43,0.26-0.673,0.26
	c-0.172,0-0.344-0.044-0.5-0.134l-16.354-9.441c-0.277-0.16-0.461-0.444-0.494-0.763c-0.034-0.318,0.088-0.634,0.326-0.848
	c8.649-7.761,17.444-14.417,26.142-19.784c10.527-7.107,22.777-13.249,31.194-17.145
	C5803.065-2979.933,5803.316-2979.951,5803.548-2979.883z M5728.373-2952.478c12.577-18.88,33.559-30.152,56.126-30.152
	c1.477,0,3.032,0.064,5.042,0.208c0.448,0.032,0.819,0.359,0.909,0.799c0.089,0.44-0.126,0.885-0.525,1.089
	c-8.41,4.293-15.696,8.527-21.656,12.583c-9.723,6.002-19.448,13.464-28.945,22.203c-0.188,0.174-0.432,0.264-0.677,0.264
	c-0.172,0-0.344-0.044-0.499-0.134l-9.441-5.441c-0.24-0.138-0.411-0.369-0.475-0.638S5728.22-2952.248,5728.373-2952.478z
	 M5718.937-2899.405c-1.228-5.348-1.85-10.667-1.85-15.812c0-1.221,0.029-2.411,0.09-3.638c0.019-0.363,0.232-0.688,0.559-0.849
	c0.326-0.16,0.714-0.13,1.013,0.078c10.164,7.089,19.629,12.803,28.134,16.981c12.534,6.866,25.266,11.531,33.746,14.24
	c0.414,0.132,0.695,0.518,0.695,0.953v18.883c0,0.32-0.153,0.621-0.412,0.809c-0.173,0.125-0.379,0.191-0.588,0.191
	c-0.104,0-0.208-0.016-0.31-0.049c-10.889-3.541-21.057-7.83-30.222-12.747c-11.398-5.55-22.857-13.096-30.457-18.446
	C5719.134-2898.953,5718.991-2899.165,5718.937-2899.405z M5781.353-2848.952c0,0.276-0.114,0.54-0.315,0.729
	c-0.186,0.174-0.431,0.271-0.685,0.271c-0.021,0-0.041,0-0.062-0.002c-24.253-1.512-45.908-16.086-56.516-38.034
	c-0.195-0.404-0.098-0.888,0.239-1.185s0.83-0.333,1.205-0.089c7.841,5.088,15.157,9.293,21.748,12.498
	c12.651,6.808,25.296,11.339,33.683,13.945c0.418,0.13,0.703,0.517,0.703,0.955V-2848.952z M5781.353-2896.188
	c0,0.321-0.154,0.624-0.415,0.811c-0.173,0.125-0.378,0.189-0.585,0.189c-0.106,0-0.213-0.017-0.316-0.051
	c-11.003-3.669-21.171-8.037-30.222-12.983c-11.762-5.804-23.362-13.606-31.018-19.125c-0.316-0.228-0.472-0.62-0.396-1.003
	c1.132-5.778,3.07-11.455,5.762-16.871c0.123-0.248,0.343-0.433,0.606-0.513c0.266-0.079,0.55-0.046,0.789,0.092l55.295,31.941
	c0.31,0.179,0.5,0.508,0.5,0.866V-2896.188z M5784.499-2919.012c-0.173,0-0.346-0.045-0.5-0.134l-14.41-8.323
	c-0.278-0.161-0.463-0.445-0.495-0.765c-0.032-0.32,0.092-0.636,0.332-0.849c8.697-7.702,17.562-14.328,26.347-19.694
	c8.607-5.763,19.393-11.589,32.021-17.293c0.36-0.162,0.777-0.099,1.073,0.161c4.527,3.984,8.484,8.504,11.761,13.432
	c0.152,0.23,0.204,0.513,0.141,0.782c-0.063,0.269-0.234,0.5-0.474,0.638l-55.296,31.912
	C5784.844-2919.056,5784.672-2919.012,5784.499-2919.012z M5806.877-2852.234c-0.039,0.391-0.303,0.722-0.675,0.848
	c-5.666,1.919-11.551,3.084-17.491,3.462c-0.021,0.001-0.042,0.002-0.063,0.002c-0.254,0-0.498-0.096-0.685-0.271
	c-0.201-0.189-0.315-0.453-0.315-0.729v-63.912c0-0.358,0.191-0.688,0.501-0.867l14.412-8.294c0.278-0.16,0.616-0.178,0.909-0.045
	c0.293,0.132,0.505,0.396,0.569,0.71c2.321,11.307,3.624,22.301,3.874,32.677C5808.76-2875.546,5807.817-2861.61,5806.877-2852.234z
	 M5831.261-2867.098c-0.021,0.241-0.13,0.467-0.306,0.634c-4.736,4.526-10.1,8.333-15.941,11.314
	c-0.143,0.073-0.299,0.109-0.454,0.109c-0.195,0-0.39-0.057-0.558-0.17c-0.302-0.203-0.47-0.553-0.438-0.915
	c1.046-12.297,1.263-23.339,0.645-32.821c-0.331-14.29-2.65-27.653-4.538-36.354c-0.092-0.424,0.101-0.86,0.477-1.078l16.323-9.441
	c0.276-0.16,0.614-0.179,0.906-0.048c0.293,0.13,0.506,0.392,0.572,0.705c1.643,7.666,3.679,19.532,4.053,32.534
	C5832.713-2892.547,5832.465-2880.579,5831.261-2867.098z M5839.324-2876.805c-0.107,0-0.217-0.017-0.322-0.053
	c-0.425-0.145-0.701-0.555-0.676-1.002c0.519-9.282,0.509-17.709-0.029-25.048c-0.428-14.498-2.83-27.654-4.771-36.146
	c-0.098-0.428,0.095-0.87,0.476-1.089l9.44-5.441c0.239-0.138,0.522-0.171,0.788-0.091c0.264,0.08,0.483,0.265,0.605,0.511
	c4.677,9.382,7.048,19.467,7.048,29.977c0,13.62-4.058,26.742-11.734,37.948C5839.959-2876.962,5839.647-2876.805,5839.324-2876.805
	z"/>
</svg>
