<?xml version="1.0" encoding="utf-8"?>
<!-- Generator: Adobe Illustrator 16.0.0, SVG Export Plug-In . SVG Version: 6.00 Build 0)  -->
<!DOCTYPE svg PUBLIC "-//W3C//DTD SVG 1.1//EN" "http://www.w3.org/Graphics/SVG/1.1/DTD/svg11.dtd">
<svg version="1.1" id="Livello_1" xmlns="http://www.w3.org/2000/svg" xmlns:xlink="http://www.w3.org/1999/xlink" x="0px" y="0px"
	 width="300px" height="300px" viewBox="6042.5 -3065.217 300 300" enable-background="new 6042.5 -3065.217 300 300"
	 xml:space="preserve" fill="white" stroke="white">
<path d="M6263.172-2939.743c-2.035,0-4.137,0.167-6.577,0.523l-8.31-39.186c-0.027-0.129-0.078-0.226-0.141-0.344
	c-0.058-0.174-0.133-0.378-0.25-0.573c-0.112-0.189-0.243-0.341-0.362-0.472c-0.126-0.143-0.252-0.272-0.409-0.394
	c-0.189-0.143-0.385-0.243-0.608-0.356c-0.061-0.041-0.152-0.103-0.271-0.141l-17.854-5.938c-0.316-0.106-0.645-0.16-0.976-0.16
	c-1.328,0-2.503,0.848-2.922,2.11c-0.26,0.78-0.2,1.614,0.167,2.35c0.369,0.737,1.004,1.286,1.786,1.546l16.18,5.38l2.695,12.72
	h-86.735l-1.747-8.869c-0.008-0.044-0.019-0.088-0.029-0.13h16.42c1.698,0,3.08-1.382,3.08-3.081s-1.382-3.081-3.08-3.081h-34.564
	c-1.699,0-3.082,1.382-3.082,3.081s1.383,3.081,3.082,3.081h12.177c-0.118,0.438-0.136,0.885-0.05,1.321l2.03,10.292l-12.591,24.187
	c-5.883-2.564-12.073-3.864-18.406-3.864c-25.584,0-46.398,20.814-46.398,46.399s20.814,46.399,46.398,46.399
	c18.532,0,35.168-11.033,42.512-28.149l0.703,0.235c1.728,0.771,3.526,1.162,5.35,1.162c7.269,0,13.182-5.911,13.182-13.177
	c0-1.748-0.364-3.478-1.085-5.149l67.227-49.961l0.855,4.032c-19.919,5.638-33.79,23.911-33.79,44.603
	c0,25.584,20.813,46.398,46.396,46.398c25.585,0,46.4-20.814,46.4-46.398C6309.572-2918.93,6288.756-2939.743,6263.172-2939.743z
	 M6263.813-2890.332c1.658-0.354,2.724-1.991,2.375-3.651l-8.314-39.201c1.972-0.27,3.667-0.396,5.298-0.396
	c22.188,0,40.238,18.051,40.238,40.238c0,22.185-18.051,40.233-40.238,40.233c-22.187,0-40.236-18.051-40.236-40.238
	c0-17.77,11.859-33.553,28.907-38.57l8.314,39.207C6260.498-2891.088,6262.063-2889.982,6263.813-2890.332z M6172.197-2893.632
	c0.493,0.128,0.963,0.305,1.404,0.53l-1.134,0.844L6172.197-2893.632z M6166.154-2892.435l1.236,6.224
	c0.021,0.098,0.059,0.19,0.134,0.363c0.079,0.218,0.177,0.47,0.299,0.634l0.096,0.181c0.072,0.096,0.167,0.159,0.165,0.145
	c0.221,0.255,0.473,0.465,0.833,0.679c0.082,0.051,0.163,0.098,0.245,0.134c0.622,0.276,1.221,0.34,1.814,0.227
	c0.104-0.018,0.168-0.061,0.149-0.055c0.245-0.059,0.491-0.159,0.832-0.346c0.069-0.031,0.138-0.065,0.132-0.071l5.179-3.821
	c0.094,0.448,0.138,0.861,0.138,1.269c0,3.869-3.148,7.016-7.018,7.016s-7.018-3.147-7.018-7.016
	C6163.371-2889.078,6164.399-2891.109,6166.154-2892.435z M6248.306-2948.614l-69.515,51.658c-2.239-1.871-5.001-2.951-7.856-3.073
	l-11.137-56.491h86.83L6248.306-2948.614z M6145.706-2933.048l9.024-17.335l6.429,32.608
	C6157.288-2924.004,6151.998-2929.241,6145.706-2933.048z M6161.532-2899.491l-34.448,2.217l15.772-30.3
	C6152.963-2921.338,6159.735-2911.154,6161.532-2899.491z M6157.601-2883.898l-22.63-7.709l23.853-1.534
	c-1.061,1.939-1.616,4.088-1.616,6.271C6157.208-2885.925,6157.338-2884.946,6157.601-2883.898z M6117.405-2894.34
	c-0.264,0.779-0.21,1.614,0.153,2.352c0.363,0.739,0.992,1.292,1.771,1.556l39.177,13.348c-6.472,14.583-20.81,23.976-36.678,23.976
	c-22.188,0-40.238-18.051-40.238-40.238c0-22.187,18.051-40.238,40.238-40.238c5.359,0,10.592,1.064,15.56,3.165l-17.741,34.088
	C6118.596-2896.097,6117.751-2895.354,6117.405-2894.34z"/>
</svg>
