<?xml version="1.0" encoding="utf-8"?>
<!-- Generator: Adobe Illustrator 16.0.0, SVG Export Plug-In . SVG Version: 6.00 Build 0)  -->
<!DOCTYPE svg PUBLIC "-//W3C//DTD SVG 1.1//EN" "http://www.w3.org/Graphics/SVG/1.1/DTD/svg11.dtd">
<svg version="1.1" id="Livello_1" xmlns="http://www.w3.org/2000/svg" xmlns:xlink="http://www.w3.org/1999/xlink" x="0px" y="0px"
	 width="300px" height="300px" viewBox="6889.5 -3065.217 300 300" enable-background="new 6889.5 -3065.217 300 300"
	 xml:space="preserve" fill="white" stroke="white">
<g>
	<path d="M7039.5-3001.41c-47.526,0-86.192,38.666-86.192,86.192s38.666,86.192,86.192,86.192s86.192-38.666,86.192-86.192
		S7087.026-3001.41,7039.5-3001.41z M7039.5-2836.221c-43.559,0-78.996-35.438-78.996-78.996s35.438-78.996,78.996-78.996
		s78.996,35.438,78.996,78.996S7083.059-2836.221,7039.5-2836.221z"/>
	<path d="M7043.099-2916.774v-52.557c0-1.984-1.614-3.598-3.599-3.598s-3.599,1.614-3.599,3.598v54.114
		c0,0.989,0.372,1.928,1.022,2.578l34.265,34.176c0.68,0.68,1.579,1.054,2.532,1.054c0.954,0,1.854-0.375,2.533-1.054
		s1.054-1.579,1.054-2.533c0-0.954-0.374-1.854-1.053-2.532L7043.099-2916.774z"/>
</g>
</svg>
