<?xml version="1.0" encoding="utf-8"?>
<!-- Generator: Adobe Illustrator 16.0.0, SVG Export Plug-In . SVG Version: 6.00 Build 0)  -->
<!DOCTYPE svg PUBLIC "-//W3C//DTD SVG 1.1//EN" "http://www.w3.org/Graphics/SVG/1.1/DTD/svg11.dtd">
<svg version="1.1" id="Livello_1" xmlns="http://www.w3.org/2000/svg" xmlns:xlink="http://www.w3.org/1999/xlink" x="0px" y="0px"
	 width="300px" height="300px" viewBox="4035.763 -3065.217 300 300" enable-background="new 4035.763 -3065.217 300 300"
	 xml:space="preserve" fill="white" stroke="white">
<g>
	<path d="M4261.852-2982.737c-9.895-3.048-20.105-5.502-30.316-7.322l1.623-3.997l-14.922-21.689h-64.986l-14.922,21.689
		l1.623,3.997c-10.211,1.82-20.383,4.274-30.316,7.322c-6.848,2.098-11.439,8.351-11.439,15.515v136.308
		c0,8.944,7.283,16.227,16.229,16.227h142.68c8.945,0,16.227-7.282,16.227-16.227v-136.348
		C4273.291-2974.426,4268.699-2980.64,4261.852-2982.737z M4225.836-2993.266l-13.773,33.562l-20.896-19.433l25.053-28.141
		L4225.836-2993.266z M4209.332-3009.255l-23.59,26.518l-23.588-26.518H4209.332z M4155.268-3007.276l25.053,28.141l-20.896,19.433
		l-13.773-33.562L4155.268-3007.276z M4172.762-2821.179h-58.377c-5.383,0-9.738-4.354-9.738-9.736v-136.348
		c0-4.313,2.771-8.034,6.887-9.301c10.094-3.126,20.502-5.54,30.912-7.361l14.484,35.344l15.832-14.684V-2821.179z
		 M4192.234-2821.179h-12.982v-148.103l6.49-6.016l6.492,6.016V-2821.179z M4266.799-2830.915c0,5.383-4.354,9.736-9.734,9.736
		h-58.34v-142.086l15.832,14.684l14.525-35.383c10.408,1.82,20.818,4.274,30.91,7.4c4.117,1.267,6.846,4.987,6.846,9.301v136.348
		H4266.799z"/>
	<rect x="4182.498" y="-2960.613" width="6.49" height="6.491"/>
	<rect x="4182.498" y="-2921.708" width="6.49" height="6.491"/>
	<rect x="4182.498" y="-2882.803" width="6.49" height="6.491"/>
	<rect x="4182.498" y="-2843.857" width="6.49" height="6.491"/>
	<path d="M4211.668-2898.99c0,8.945,7.281,16.228,16.227,16.228h12.98c8.945,0,16.229-7.282,16.229-16.228v-29.169h-45.436V-2898.99
		z M4218.158-2921.708h32.414v6.491h-32.414V-2921.708z M4218.158-2908.727h32.414v9.736c0,5.383-4.354,9.736-9.736,9.736h-12.98
		c-5.385,0-9.736-4.354-9.736-9.736v-9.736H4218.158z"/>
</g>
</svg>
