<?xml version="1.0" encoding="utf-8"?>
<!-- Generator: Adobe Illustrator 16.0.0, SVG Export Plug-In . SVG Version: 6.00 Build 0)  -->
<!DOCTYPE svg PUBLIC "-//W3C//DTD SVG 1.1//EN" "http://www.w3.org/Graphics/SVG/1.1/DTD/svg11.dtd">
<svg version="1.1" id="Livello_1" xmlns="http://www.w3.org/2000/svg" xmlns:xlink="http://www.w3.org/1999/xlink" x="0px" y="0px"
	 width="300px" height="300px" viewBox="5222.5 -3065.217 300 300" enable-background="new 5222.5 -3065.217 300 300"
	 xml:space="preserve" fill="white" stroke="white">
<g>
	<path d="M5432.08-2933.958c-0.212-25.574-16.801-47.965-41.363-55.947v-3.384c0-9.985-8.124-18.108-18.109-18.108
		s-18.109,8.124-18.109,18.108v3.384c-24.561,7.981-41.15,30.373-41.363,55.942l-1.299,100.284c0,8.075,6.568,14.644,14.643,14.644
		h92.041c8.075,0,14.645-6.569,14.645-14.654L5432.08-2933.958z M5384.678-2929.026c-3.163,3.163-7.421,4.904-11.989,4.904
		c-4.574,0-8.894-1.746-12.151-4.904l-32.781-32.781c10.093-15.441,26.8-24.635,44.852-24.635c18.054,0,34.761,9.193,44.852,24.635
		L5384.678-2929.026z M5418.736-2825.368h-92.258c-4.66,0-8.311-3.651-8.311-8.298l1.299-100.284c0-7.666,1.723-15.104,5.122-22.135
		l31.503,31.504c4.316,4.315,10.336,6.79,16.516,6.79c6.181,0,12.201-2.475,16.518-6.79l31.502-31.503
		c3.355,6.959,5.123,14.583,5.123,22.146l1.299,100.258C5427.049-2829.174,5423.242-2825.368,5418.736-2825.368z M5372.607-3005.284
		c6.494,0,11.777,5.283,11.777,11.777v2.031c-0.716-0.14-1.466-0.279-2.309-0.42l-4.146-0.654c-1.794-0.225-3.588-0.225-5.323-0.225
		c-1.734,0-3.527,0-5.339,0.227l-4.602,0.659c-0.545,0.109-1.045,0.213-1.545,0.317c-0.111,0.023-0.222,0.046-0.333,0.069v-1.721
		c0.027-0.091,0.041-0.187,0.041-0.284C5360.83-3000.001,5366.113-3005.284,5372.607-3005.284z"/>
	<path d="M5415.97-2903.939c-1.871-1.954-4.493-3.075-7.194-3.075h-72.334c-5.566,0-10.096,4.529-10.096,10.097v58.473
		c0,5.567,4.529,10.096,10.096,10.096h72.117c5.566,0,10.096-4.529,10.096-10.096l-0.001-58.429
		C5418.768-2899.503,5417.814-2902.012,5415.97-2903.939z M5336.441-2900.683h72.117c2.04,0,3.764,1.725,3.764,3.766v7.413h-79.645
		v-7.413C5332.678-2898.958,5334.401-2900.683,5336.441-2900.683z M5408.775-2834.68h-72.334c-2.04,0-3.764-1.724-3.764-3.765
		v-44.728h79.861v44.728C5412.539-2836.404,5410.815-2834.68,5408.775-2834.68z"/>
	<path d="M5404.01-2860.019h-19.924c-2.298,0-4.031,1.733-4.031,4.032v11.911c0,2.299,1.733,4.032,4.031,4.032h19.924
		c2.298,0,4.031-1.733,4.031-4.032v-11.911C5408.041-2858.285,5406.308-2860.019,5404.01-2860.019z M5401.711-2853.471v7.096
		h-15.326v-7.096H5401.711z"/>
</g>
</svg>
