<?xml version="1.0" encoding="utf-8"?>
<!-- Generator: Adobe Illustrator 16.0.0, SVG Export Plug-In . SVG Version: 6.00 Build 0)  -->
<!DOCTYPE svg PUBLIC "-//W3C//DTD SVG 1.1//EN" "http://www.w3.org/Graphics/SVG/1.1/DTD/svg11.dtd">
<svg version="1.1" id="Livello_1" xmlns="http://www.w3.org/2000/svg" xmlns:xlink="http://www.w3.org/1999/xlink" x="0px" y="0px"
	 width="300px" height="300px" viewBox="1739.763 -3065.217 300 300" enable-background="new 1739.763 -3065.217 300 300"
	 xml:space="preserve" fill="white" stroke="white">
<path d="M1977.327-2984.034c-24.127-12.157-52.247-17.411-60.291-18.732c-0.132-0.022-0.241-0.041-0.327-0.057l-0.001,0.001
	c-1.955-0.293-3.785,0.963-4.266,2.844c-0.019,0.102-0.197,0.825-0.845,2.256c-1.841,3.656-6.636,13.167-21.818,13.288
	c-10.456-0.08-15.511-4.503-18.405-7.823c-1.775-2.088-2.855-4.131-3.453-5.481c-0.415-0.917-0.617-1.544-0.717-1.857
	c-0.058-0.119-0.104-0.245-0.137-0.377c-0.46-1.825-2.185-3.06-4.086-2.855l-0.1,0.012c-5.065,0.598-31.798,4.311-60.674,18.766
	c-1.571,0.778-2.396,2.51-2.013,4.214l8.363,37.857c0.413,1.874,2.214,3.186,4.146,2.969l19.777-2.219
	c0.595-0.072,1.2,0.141,1.63,0.566c0.43,0.425,0.644,1.022,0.582,1.625c-0.949,9.285-1.431,18.537-1.431,27.499
	c0,32.896,6.338,52.829,6.607,53.661c0.407,1.25,1.462,2.215,2.75,2.519c11.096,2.66,19.449,7.684,24.835,14.936
	c1.624,2.211,2.899,4.554,3.796,6.973c0.35,0.946,0.547,1.646,0.65,2.068c0.067,0.268,0.098,0.44,0.112,0.551
	c0.001,0.003,0.002,0.007,0.002,0.011c0.289,1.84,1.914,3.228,3.78,3.228l27.938,0.02c1.844,0,3.424-1.318,3.757-3.133
	c0.011-0.087,0.164-1.003,0.874-2.862c4.721-11.52,14.275-18.83,28.416-21.77c1.428-0.291,2.549-1.341,2.935-2.744l0.021-0.084
	c1.14-4.368,6.822-27.621,6.83-56.536c0-8.393-0.495-16.555-1.472-24.261c-0.077-0.608,0.13-1.219,0.561-1.656
	c0.431-0.437,1.03-0.655,1.647-0.583l19.511,2.195c1.998,0.229,3.729-1.064,4.158-2.971l8.366-37.859
	C1979.704-2981.526,1978.878-2983.258,1977.327-2984.034z M1970.894-2976.977l-6.243,28.259c-0.221,0.998-1.158,1.667-2.176,1.556
	l-21.85-2.449c-1.196-0.134-2.384,0.308-3.188,1.165c-0.832,0.887-1.189,2.085-0.98,3.288c1.652,9.474,2.49,19.725,2.49,30.465
	c0.011,22.49-3.627,41.747-5.796,51.225c-0.165,0.724-0.719,1.297-1.438,1.487c-19.777,5.236-27.548,18.229-30.42,25.508
	c-0.302,0.764-1.039,1.266-1.86,1.266h-0.001l-19.289-0.009c-0.822,0-1.56-0.503-1.86-1.269
	c-2.763-7.029-10.42-19.684-30.657-25.455c-0.682-0.194-1.21-0.736-1.388-1.422c-0.776-3-1.536-6.556-2.197-10.281
	c-2.064-11.604-3.155-24.708-3.155-37.894c0-11.03,0.747-22.402,2.22-33.803c0.144-1.158-0.247-2.318-1.072-3.172
	c-0.802-0.81-1.976-1.232-3.133-1.101l-21.843,2.45c-1.01,0.119-1.956-0.558-2.176-1.556l-6.241-28.259
	c-0.201-0.914,0.257-1.845,1.104-2.242c14.154-6.631,27.542-10.549,36.28-12.669c4.603-1.116,9.093-2.03,13.346-2.717
	c0.866-0.136,1.722,0.3,2.11,1.085c1.08,2.176,2.44,4.249,4.043,6.163c2.622,3.182,10.184,10.554,23.975,10.554l0.255-0.001
	l0.286,0.001c13.773,0,21.346-7.381,23.962-10.555c1.573-1.889,2.913-3.925,3.987-6.058c0.4-0.797,1.283-1.23,2.158-1.065
	c3.284,0.621,8.516,1.694,14.79,3.275c9.034,2.289,22.41,6.225,34.845,11.983
	C1970.633-2978.829,1971.096-2977.895,1970.894-2976.977z"/>
</svg>
