<?xml version="1.0" encoding="utf-8"?>
<!-- Generator: Adobe Illustrator 16.0.0, SVG Export Plug-In . SVG Version: 6.00 Build 0)  -->
<!DOCTYPE svg PUBLIC "-//W3C//DTD SVG 1.1//EN" "http://www.w3.org/Graphics/SVG/1.1/DTD/svg11.dtd">
<svg version="1.1" id="Livello_1" xmlns="http://www.w3.org/2000/svg" xmlns:xlink="http://www.w3.org/1999/xlink" x="0px" y="0px"
	 width="300px" height="300px" viewBox="2487.763 -3065.217 300 300" enable-background="new 2487.763 -3065.217 300 300"
	 xml:space="preserve" fill="white" stroke="white">
<g>
	<path fill="none" d="M2605.787-2947.505c-2.264,0-4.1-1.835-4.1-4.098c0-2.262,1.836-4.097,4.1-4.097s4.098,1.835,4.098,4.097
		C2609.885-2949.34,2608.051-2947.505,2605.787-2947.505z M2622.264-2919.244c-2.264,0-4.098-1.835-4.098-4.098
		c0-2.264,1.834-4.098,4.098-4.098s4.098,1.834,4.098,4.098C2626.361-2921.079,2624.527-2919.244,2622.264-2919.244z
		 M2622.264-2975.766c-2.264,0-4.098-1.834-4.098-4.098c0-2.263,1.834-4.098,4.098-4.098s4.098,1.835,4.098,4.098
		C2626.361-2977.6,2624.527-2975.766,2622.264-2975.766z M2638.768-2947.505c-2.264,0-4.098-1.835-4.098-4.098
		c0-2.262,1.834-4.097,4.098-4.097c2.262,0,4.098,1.835,4.098,4.097C2642.865-2949.34,2641.029-2947.505,2638.768-2947.505z
		 M2653.35-2919.244c-2.264,0-4.098-1.835-4.098-4.098c0-2.264,1.834-4.098,4.098-4.098c2.262,0,4.098,1.834,4.098,4.098
		C2657.447-2921.079,2655.611-2919.244,2653.35-2919.244z M2653.35-2975.766c-2.264,0-4.098-1.834-4.098-4.098
		c0-2.263,1.834-4.098,4.098-4.098c2.262,0,4.098,1.835,4.098,4.098C2657.447-2977.6,2655.611-2975.766,2653.35-2975.766z
		 M2669.854-2947.505c-2.262,0-4.098-1.835-4.098-4.098c0-2.262,1.836-4.097,4.098-4.097c2.264,0,4.098,1.835,4.098,4.097
		C2673.951-2949.34,2672.117-2947.505,2669.854-2947.505z"/>
	<circle cx="2605.787" cy="-2951.603" r="4.098"/>
	<circle cx="2669.854" cy="-2951.603" r="4.098"/>
	<circle cx="2638.768" cy="-2951.603" r="4.098"/>
	<circle cx="2653.35" cy="-2979.863" r="4.098"/>
	<circle cx="2622.264" cy="-2979.863" r="4.098"/>
	<circle cx="2653.35" cy="-2923.342" r="4.098"/>
	<circle cx="2622.264" cy="-2923.342" r="4.098"/>
</g>
<path d="M2722.995-2936.586l-0.228,0.001h-14.764c-0.553,0-1-0.448-1-1v-38.859c-0.016-18.911-15.413-34.31-34.325-34.325h-69.802
	c-18.912,0.015-34.311,15.414-34.326,34.326v38.801c0,0.552-0.447,1-1,1l-15.015-0.002c-11.797,0-21.521,9.23-22.137,21.013
	c-0.338,10.671,7.045,19.884,17.555,21.884c0.473,0.09,0.813,0.502,0.813,0.982v37.079c0.022,8.897,6.002,16.859,14.543,19.358
	c0.426,0.125,0.719,0.516,0.719,0.96v12.463c0,1.786,1.453,3.239,3.238,3.239h21.479c1.787,0,3.24-1.453,3.24-3.239v-11.586
	c0-0.552,0.447-1,1-1h89.584c0.553,0,1,0.448,1,1v11.586c0,1.786,1.453,3.239,3.24,3.239h21.477c1.787,0,3.24-1.453,3.24-3.239
	v-12.463c0-0.444,0.293-0.835,0.719-0.96c8.541-2.5,14.521-10.461,14.541-19.361v-37.133c0-0.479,0.341-0.892,0.812-0.982
	c10.469-2.007,17.84-11.197,17.528-21.852C2744.485-2927.381,2734.763-2936.586,2722.995-2936.586z M2585.592-2827.144
	c0,0.552-0.447,1-1,1h-13c-0.553,0-1-0.448-1-1v-7.347c0-0.552,0.447-1,1-1h13c0.553,0,1,0.448,1,1V-2827.144z M2585.3-2842.262
	c-0.188,0.188-0.442,0.293-0.708,0.293h-15.629c-7.563,0-13.717-6.153-13.717-13.717v-40.979c0-1.786-1.453-3.238-3.238-3.238
	c-8.344,0-15.133-6.783-15.139-15.123c0-0.153,0.004-0.307,0.008-0.459c0.525-8.249,7.38-14.682,15.606-14.682l0.308,0.003h19
	c7.562,0,13.715,6.154,13.715,13.718l0.086,73.477C2585.592-2842.705,2585.487-2842.45,2585.3-2842.262z M2683.57-2842.969
	c0,0.552-0.447,1-1,1h-89.5c-0.553,0-1-0.448-1-1v-15.967c0-0.552,0.447-1,1-1h89.5c0.553,0,1,0.448,1,1V-2842.969z
	 M2683.57-2867.415c0,0.552-0.447,1-1,1h-89.5c-0.553,0-1-0.448-1-1v-25.011c0-0.552,0.447-1,1-1h89.5c0.553,0,1,0.448,1,1
	V-2867.415z M2683.57-2916.445v15.542c0,0.552-0.447,1-1,1h-89.5c-0.553,0-1-0.448-1-1v-15.543
	c-0.009-9.548-6.805-17.873-16.158-19.793c-0.465-0.095-0.799-0.505-0.799-0.979v-39.226c0.017-15.291,12.469-27.782,27.76-27.847
	c0.001,0,0.003,0,0.004,0h69.803c15.34,0.017,27.831,12.508,27.848,27.846v39.227c0,0.475-0.334,0.884-0.799,0.979
	C2690.373-2934.318,2683.578-2925.994,2683.57-2916.445z M2705.049-2827.144c0,0.552-0.447,1-1,1h-13c-0.553,0-1-0.448-1-1v-7.347
	c0-0.552,0.447-1,1-1h13c0.553,0,1,0.448,1,1V-2827.144z M2734.542-2904.661c-2.771,2.942-6.521,4.629-10.561,4.75
	c-0.152,0.005-0.31,0.007-0.46,0.007c-1.787,0-3.24,1.453-3.24,3.238v40.979c0,7.563-6.153,13.717-13.717,13.717h-15.516
	c-0.553,0-1-0.448-1-1v-73.478c0-7.564,6.153-13.718,13.717-13.718l19.28-0.003c8.226,0,15.079,6.433,15.603,14.646
	C2738.771-2911.448,2737.312-2907.603,2734.542-2904.661z"/>
</svg>
