<?xml version="1.0" encoding="utf-8"?>
<!-- Generator: Adobe Illustrator 16.0.0, SVG Export Plug-In . SVG Version: 6.00 Build 0)  -->
<!DOCTYPE svg PUBLIC "-//W3C//DTD SVG 1.1//EN" "http://www.w3.org/Graphics/SVG/1.1/DTD/svg11.dtd">
<svg version="1.1" id="Livello_1" xmlns="http://www.w3.org/2000/svg" xmlns:xlink="http://www.w3.org/1999/xlink" x="0px" y="0px"
	 width="300px" height="300px" viewBox="2863.763 -3065.217 300 300" enable-background="new 2863.763 -3065.217 300 300"
	 xml:space="preserve" fill="white" stroke="white">
<path d="M3076.834-3013.402h-126.143c-8.678,0-15.738,7.061-15.738,15.739v156.647c0,13.225,10.759,23.984,23.983,23.984h109.652
	c13.225,0,23.983-10.759,23.983-23.984v-156.647C3092.572-3006.342,3085.512-3013.402,3076.834-3013.402z M3085.828-2841.016
	c0,9.505-7.733,17.239-17.239,17.239h-109.652c-9.506,0-17.239-7.733-17.239-17.239V-2961.8c0-0.414,0.336-0.75,0.75-0.75h142.631
	c0.414,0,0.75,0.336,0.75,0.75V-2841.016z M3085.828-2970.044c0,0.414-0.336,0.75-0.75,0.75h-142.631c-0.414,0-0.75-0.336-0.75-0.75
	v-27.62c0-4.959,4.035-8.995,8.994-8.995h126.143c4.959,0,8.994,4.035,8.994,8.995V-2970.044z"/>
<path d="M3013.763-2840.117c29.363,0,53.253-23.889,53.253-53.253c0-29.363-23.89-53.251-53.253-53.251
	s-53.252,23.888-53.252,53.251C2960.511-2864.006,2984.399-2840.117,3013.763-2840.117z M3013.763-2939.877
	c25.645,0,46.508,20.863,46.508,46.507c0,25.646-20.863,46.509-46.508,46.509c-25.644,0-46.507-20.864-46.507-46.509
	C2967.256-2919.014,2988.119-2939.877,3013.763-2939.877z"/>
<path d="M2986.217-2893.37c0-15.188,12.357-27.544,27.546-27.544c2.049,0,3.372-1.324,3.372-3.373c0-2.048-1.323-3.371-3.372-3.371
	c-18.907,0-34.289,15.381-34.289,34.288c0,2.049,1.323,3.373,3.372,3.373C2984.894-2889.997,2986.217-2891.321,2986.217-2893.37z"/>
<path d="M3062.406-3001.036c-7.439,0-13.267,5.827-13.267,13.266c0,7.438,5.827,13.266,13.267,13.266
	c7.438,0,13.266-5.827,13.266-13.266C3075.672-2995.208,3069.845-3001.036,3062.406-3001.036z M3062.406-2981.661
	c-3.718,0-6.521-2.803-6.521-6.521c0-3.824,3.315-6.109,6.521-6.109c3.149,0,6.521,2.621,6.521,6.521
	C3068.928-2984.173,3066.246-2981.661,3062.406-2981.661z"/>
<path d="M2963.883-2991.554h-8.656c-2.049,0-3.373,1.323-3.373,3.372c0,2.049,1.324,3.373,3.373,3.373h8.656
	c2.049,0,3.373-1.324,3.373-3.373C2967.256-2989.804,2965.966-2991.554,2963.883-2991.554z"/>
<path d="M2986.556-2991.554h-8.656c-2.049,0-3.372,1.323-3.372,3.372c0,2.049,1.323,3.373,3.372,3.373h8.656
	c2.049,0,3.372-1.324,3.372-3.373C2989.928-2989.804,2988.639-2991.554,2986.556-2991.554z"/>
<path d="M3009.642-2991.554h-8.658c-2.049,0-3.372,1.323-3.372,3.372c0,2.049,1.323,3.373,3.372,3.373h8.658
	c2.048,0,3.371-1.324,3.371-3.373C3013.013-2989.821,3011.28-2991.554,3009.642-2991.554z"/>
<path d="M3032.312-2991.554h-8.656c-2.049,0-3.372,1.323-3.372,3.372c0,2.049,1.323,3.373,3.372,3.373h8.656
	c2.05,0,3.374-1.324,3.374-3.373C3035.687-2989.821,3033.952-2991.554,3032.312-2991.554z"/>
</svg>
