<?xml version="1.0" encoding="utf-8"?>
<!-- Generator: Adobe Illustrator 16.0.0, SVG Export Plug-In . SVG Version: 6.00 Build 0)  -->
<!DOCTYPE svg PUBLIC "-//W3C//DTD SVG 1.1//EN" "http://www.w3.org/Graphics/SVG/1.1/DTD/svg11.dtd">
<svg version="1.1" id="Livello_1" xmlns="http://www.w3.org/2000/svg" xmlns:xlink="http://www.w3.org/1999/xlink" x="0px" y="0px"
	 width="300px" height="300px" viewBox="0 0 300 300" enable-background="new 0 0 300 300" xml:space="preserve" fill="white" stroke="white">
<g>
	<path d="M198.879,107.795v-3.259c0-5.397-4.376-9.774-9.776-9.774h-78.2c-5.398,0-9.776,4.377-9.776,9.774v101.007h84.719v-97.674
		c0-1.799,1.459-3.258,3.258-3.258c1.776,0,3.22,1.418,3.26,3.184H198.879z M205.396,107.795h3.259c0.185,0,0.365,0.015,0.541,0.045
		c1.329-3.82,4.962-6.561,9.233-6.561c5.399,0,9.776,4.376,9.776,9.774c0,5.399-4.377,9.776-9.776,9.776
		c-4.271,0-7.904-2.742-9.233-6.562c-0.176,0.03-0.356,0.045-0.541,0.045h-3.259v101.005c-0.008,1.814-1.463,3.264-3.258,3.264
		c-1.799,0-3.259-1.459-3.259-3.257V114.312h-6.517v107.602c0,1.8-1.459,3.258-3.26,3.258c-1.799,0-3.258-1.458-3.258-3.258v-9.854
		h-6.516v9.778c0,1.801-1.459,3.26-3.259,3.26s-3.258-1.459-3.258-3.26v-9.778h-6.519v9.778c0,1.801-1.457,3.26-3.257,3.26
		s-3.26-1.459-3.26-3.26v-9.778h-6.516v9.778c0,1.801-1.459,3.26-3.259,3.26c-1.801,0-3.258-1.459-3.258-3.26v-9.778h-6.518v9.778
		c0,1.801-1.459,3.26-3.259,3.26c-1.799,0-3.258-1.459-3.258-3.26v-9.778h-6.517v9.778c0,1.801-1.459,3.26-3.258,3.26
		c-1.801,0-3.26-1.459-3.26-3.26v-9.778h-6.517v9.778c0,1.801-1.459,3.26-3.258,3.26c-1.8,0-3.259-1.459-3.259-3.26v-9.778h-6.518
		v9.778c0,1.801-1.457,3.26-3.258,3.26c-1.799,0-3.258-1.459-3.258-3.26v-13.032v-94.495h-3.815
		c-1.341,3.796-4.962,6.517-9.218,6.517c-5.398,0-9.776-4.377-9.776-9.776c0-5.398,4.378-9.774,9.776-9.774
		c4.256,0,7.877,2.72,9.218,6.516h3.815v-3.259c0-8.998,7.294-16.291,16.292-16.291h78.2c8.999,0,16.293,7.293,16.293,16.291
		V107.795z M218.429,114.312c1.8,0,3.26-1.459,3.26-3.259s-1.46-3.258-3.26-3.258c-1.799,0-3.257,1.459-3.257,3.258
		S216.63,114.312,218.429,114.312z M81.577,114.312c1.799,0,3.258-1.459,3.258-3.259s-1.459-3.258-3.258-3.258
		c-1.8,0-3.26,1.459-3.26,3.258S79.777,114.312,81.577,114.312z"/>
	<rect x="189.103" y="199.03" width="13.035" height="6.518"/>
</g>
</svg>
