<?xml version="1.0" encoding="utf-8"?>
<!-- Generator: Adobe Illustrator 16.0.0, SVG Export Plug-In . SVG Version: 6.00 Build 0)  -->
<!DOCTYPE svg PUBLIC "-//W3C//DTD SVG 1.1//EN" "http://www.w3.org/Graphics/SVG/1.1/DTD/svg11.dtd">
<svg version="1.1" id="Livello_1" xmlns="http://www.w3.org/2000/svg" xmlns:xlink="http://www.w3.org/1999/xlink" x="0px" y="0px"
	 width="300px" height="300px" viewBox="3243.763 -3065.217 300 300" enable-background="new 3243.763 -3065.217 300 300"
	 xml:space="preserve" fill="white" stroke="white">
<g>
	<path d="M3336.444-2956.477c0.233-0.676,0.366-1.399,0.366-2.154c0-3.65-2.958-6.608-6.608-6.608c-3.649,0-6.607,2.958-6.607,6.608
		c0,3.649,2.958,6.608,6.607,6.608c0.729,0,1.43-0.123,2.085-0.341l31.004,33.429v14.41l-29.634-29.634
		c0.226-0.667,0.354-1.379,0.354-2.123c0-3.65-2.958-6.608-6.607-6.608c-3.65,0-6.609,2.958-6.609,6.608
		c0,3.649,2.959,6.608,6.609,6.608c0.742,0,1.453-0.128,2.119-0.354l33.768,33.807v17.21l-17.564-17.563
		c0.227-0.667,0.354-1.379,0.354-2.123c0-3.649-2.958-6.608-6.607-6.608c-3.65,0-6.608,2.959-6.608,6.608
		c0,3.65,2.958,6.608,6.608,6.608c0.733,0,1.436-0.124,2.095-0.345l21.723,21.687v33.132c0,1.606,1.285,2.891,2.938,2.891
		s2.937-1.238,2.937-2.937v-82.468c0-0.688-0.275-1.423-0.78-1.927L3336.444-2956.477z"/>
	<path d="M3367.489-2952.964l30.483-30.541c0.081-0.061,0.167-0.113,0.242-0.183c0.119-0.115,0.219-0.243,0.313-0.374l13.696-13.721
		c0.497,0.12,1.014,0.19,1.548,0.19c3.649,0,6.608-2.959,6.608-6.608c0-3.65-2.959-6.608-6.608-6.608s-6.608,2.958-6.608,6.608
		c0,0.932,0.195,1.818,0.543,2.623l-11.626,11.626l-9.821-9.821c0.539-0.957,0.85-2.059,0.85-3.235c0-3.649-2.959-6.608-6.608-6.608
		c-3.65,0-6.608,2.959-6.608,6.608c0,3.65,2.958,6.608,6.608,6.608c0.29,0,0.574-0.025,0.854-0.062
		c0.078,0.099,0.152,0.201,0.246,0.291l10.349,10.35l-11.587,11.587l-17.939-17.938c0.549-0.963,0.867-2.076,0.867-3.264
		c0-3.649-2.959-6.608-6.608-6.608s-6.608,2.959-6.608,6.608c0,3.65,2.959,6.608,6.608,6.608c0.278,0,0.552-0.023,0.821-0.057
		c0.087,0.115,0.173,0.231,0.279,0.333l18.449,18.448l-12.941,12.942l-18.725-18.725c0.234-0.677,0.367-1.4,0.367-2.156
		c0-3.649-2.958-6.608-6.608-6.608c-3.649,0-6.608,2.959-6.608,6.608s2.959,6.608,6.608,6.608c0.731,0,1.433-0.124,2.09-0.343
		l40.452,40.452v108.718c0,1.652,1.285,2.982,2.938,2.982c1.606,0,2.938-1.376,2.938-2.982v-109.911c0-0.78-0.322-1.515-0.872-2.065
		L3367.489-2952.964z"/>
	<path d="M3427.705-2989.62c0.934,0.505,2.002,0.792,3.139,0.792c3.649,0,6.609-2.958,6.609-6.608c0-3.649-2.96-6.608-6.609-6.608
		s-6.608,2.959-6.608,6.608c0,0.435,0.045,0.859,0.125,1.271c-0.345,0.137-0.669,0.34-0.951,0.611l-22.074,22.074
		c-0.597,0.505-0.871,1.285-0.871,2.064v24.858l-7.135-7.158c0.192-0.619,0.296-1.277,0.296-1.959c0-3.649-2.958-6.608-6.608-6.608
		c-3.649,0-6.608,2.959-6.608,6.608s2.959,6.608,6.608,6.608c0.809,0,1.58-0.152,2.297-0.418l11.15,11.113v113.765
		c0,1.652,1.284,2.982,2.937,2.982s2.938-1.376,2.938-2.982v-145.569l21.202-21.248
		C3427.603-2989.485,3427.648-2989.556,3427.705-2989.62z"/>
	<path d="M3449.398-2937.81c0.121-0.08,0.242-0.16,0.353-0.262c0.099-0.111,0.179-0.231,0.26-0.351l8.305-8.305
		c0.575,0.164,1.18,0.257,1.808,0.257c3.649,0,6.607-2.959,6.607-6.608s-2.958-6.608-6.607-6.608s-6.608,2.959-6.608,6.608
		c0,0.845,0.165,1.649,0.453,2.392l-6.305,6.305l-12.964-12.964l11.353-11.353c0.51,0.126,1.04,0.2,1.589,0.2
		c3.649,0,6.608-2.958,6.608-6.608c0-3.649-2.959-6.608-6.608-6.608c-3.65,0-6.609,2.959-6.609,6.608
		c0,0.918,0.188,1.792,0.526,2.587l-11.032,11l-2.074-2.075c0.297-0.751,0.465-1.568,0.465-2.425c0-3.649-2.959-6.608-6.608-6.608
		s-6.608,2.959-6.608,6.608c0,3.65,2.959,6.608,6.608,6.608c0.602,0,1.182-0.087,1.735-0.238l19.444,19.444l-8.815,8.815
		l-6.452-6.423c0.183-0.605,0.283-1.246,0.283-1.91c0-3.649-2.958-6.608-6.608-6.608c-3.649,0-6.607,2.959-6.607,6.608
		s2.958,6.608,6.607,6.608c0.797,0,1.558-0.148,2.265-0.407l6.337,6.308l-10.482,10.482c-0.505,0.504-0.873,1.239-0.873,2.02v77.098
		c0,1.652,1.332,2.891,2.984,2.891c1.651,0,2.937-1.238,2.937-2.891v-28.543l13.481-13.448c0.64,0.207,1.321,0.321,2.03,0.321
		c3.649,0,6.608-2.958,6.608-6.608c0-3.649-2.959-6.608-6.608-6.608c-3.65,0-6.608,2.959-6.608,6.608
		c0,0.744,0.129,1.456,0.354,2.123l-9.258,9.258v-14.549l30.876-30.918c0.476,0.109,0.969,0.172,1.478,0.172
		c3.649,0,6.608-2.959,6.608-6.608s-2.959-6.608-6.608-6.608s-6.608,2.959-6.608,6.608c0,0.968,0.213,1.885,0.588,2.714
		l-26.333,26.297v-16.069L3449.398-2937.81z"/>
</g>
</svg>
