<?xml version="1.0" encoding="utf-8"?>
<!-- Generator: Adobe Illustrator 16.0.0, SVG Export Plug-In . SVG Version: 6.00 Build 0)  -->
<!DOCTYPE svg PUBLIC "-//W3C//DTD SVG 1.1//EN" "http://www.w3.org/Graphics/SVG/1.1/DTD/svg11.dtd">
<svg version="1.1" id="Livello_1" xmlns="http://www.w3.org/2000/svg" xmlns:xlink="http://www.w3.org/1999/xlink" x="0px" y="0px"
	 width="300px" height="300px" viewBox="6470.5 -3065.217 300 300" enable-background="new 6470.5 -3065.217 300 300"
	 xml:space="preserve" fill="white" stroke="white">
<path d="M6667.426-2997.798h-93.816c-7.011,0-12.715,5.704-12.715,12.714v139.733c0,7.01,5.704,12.714,12.715,12.714h93.783
	c7.01,0,12.713-5.704,12.713-12.714v-139.733c0.015-3.381-1.295-6.565-3.689-8.971
	C6674.013-2996.468,6670.819-2997.798,6667.426-2997.798z M6667.426-2839.413h-93.816c-3.256,0-5.905-2.648-5.905-5.903v-139.768
	c0-3.256,2.649-5.905,5.905-5.905h93.783c3.255,0,5.903,2.649,5.903,5.905v139.484c0.022,0.091,0.034,0.186,0.034,0.284
	C6673.33-2842.062,6670.682-2839.413,6667.426-2839.413z"/>
<path d="M6585.267-2970.013v-7.083c0-1.877-1.527-3.405-3.404-3.405c-1.878,0-3.405,1.528-3.405,3.405v7.083
	c0,1.877,1.527,3.405,3.405,3.405C6583.739-2966.607,6585.267-2968.135,6585.267-2970.013z"/>
<path d="M6659.172-2863.795c-1.877,0-3.403,1.528-3.403,3.405v7.083c0,1.877,1.526,3.405,3.403,3.405
	c1.878,0,3.405-1.528,3.405-3.405v-7.083C6662.577-2862.267,6661.05-2863.795,6659.172-2863.795z"/>
<path d="M6636.395-2952.573c-5.638,0-10.966,2.172-15.004,6.115c-0.484,0.475-1.262,0.474-1.746,0
	c-4.039-3.943-9.367-6.115-15.005-6.115c-11.87,0-21.527,9.657-21.527,21.526c0,15.631,31.359,48.484,34.936,52.179
	c0.664,0.665,1.535,1.039,2.437,1.039c0.936,0,1.817-0.372,2.417-1.02c3.605-3.686,35.021-36.252,35.021-52.198
	C6657.922-2942.917,6648.265-2952.573,6636.395-2952.573z M6621.433-2887.181c-0.236,0.254-0.568,0.398-0.915,0.398
	c-0.001,0-0.002,0-0.003,0c-0.348,0-0.68-0.146-0.915-0.402c-11.023-11.937-29.68-34.615-29.68-43.894
	c0-8.098,6.588-14.686,14.686-14.686c5.39,0,10.327,2.933,12.885,7.653c0.599,1.078,1.749,1.755,2.994,1.755s2.395-0.677,3-1.767
	c2.59-4.711,7.525-7.642,12.878-7.642c8.098,0,14.686,6.588,14.686,14.686C6651.092-2919.367,6624.468-2890.441,6621.433-2887.181z"
	/>
</svg>
